<svg width="3847" height="977" viewBox="0 0 3847 977" fill="none" xmlns="http://www.w3.org/2000/svg">
<path d="M3845.24 49.2423C3847.59 46.8992 3847.59 43.1002 3845.24 40.757L3807.06 2.57327C3804.72 0.23012 3800.92 0.230121 3798.57 2.57327C3796.23 4.91641 3796.23 8.7154 3798.57 11.0585L3832.51 44.9997L3798.57 78.9408C3796.23 81.2839 3796.23 85.0829 3798.57 87.4261C3800.92 89.7692 3804.72 89.7692 3807.06 87.4261L3845.24 49.2423ZM5.15774e-07 51L3841 50.9997L3841 38.9997L-5.15774e-07 39L5.15774e-07 51Z" fill="url(#paint0_linear_283_124)"/>
<path d="M0 103C0 563.517 2519.33 685.549 3779 689H0V103Z" fill="#D7E5BE" fill-opacity="0.5"/>
<path d="M3841 103C3841 563.517 1322.33 685.549 63 689H3841V103Z" fill="#E31937" fill-opacity="0.5"/>
<path d="M247.032 380H216.12V334.24H247.032V339.552H222.264V374.688H247.032V380ZM245.816 359.328H221.624V354.016H245.816V359.328ZM283.858 380H277.906V361.696C277.906 358.581 277.202 356.256 275.794 354.72C274.386 353.141 272.487 352.352 270.098 352.352C268.391 352.352 266.77 352.8 265.234 353.696C263.698 354.592 262.46 356 261.522 357.92C260.583 359.84 260.114 362.315 260.114 365.344V380H254.161V348.256H260.05V357.984H259.154C259.623 355.296 260.476 353.184 261.714 351.648C262.951 350.069 264.423 348.939 266.13 348.256C267.836 347.573 269.607 347.232 271.442 347.232C275.282 347.232 278.311 348.427 280.53 350.816C282.748 353.163 283.858 356.576 283.858 361.056V380ZM318.857 370.656L322.569 374.496C320.905 376.544 318.857 378.144 316.425 379.296C314.036 380.448 311.326 381.024 308.297 381.024C304.841 381.024 301.769 380.299 299.081 378.848C296.393 377.397 294.281 375.413 292.745 372.896C291.252 370.336 290.505 367.413 290.505 364.128C290.505 360.843 291.23 357.941 292.681 355.424C294.132 352.864 296.137 350.859 298.697 349.408C301.257 347.957 304.137 347.232 307.337 347.232C310.452 347.232 313.204 347.957 315.593 349.408C318.025 350.816 319.924 352.779 321.289 355.296C322.697 357.771 323.401 360.651 323.401 363.936V364.32H317.385V363.744C317.385 361.44 316.958 359.435 316.105 357.728C315.252 355.979 314.057 354.635 312.521 353.696C311.028 352.715 309.3 352.224 307.337 352.224C305.246 352.224 303.39 352.715 301.769 353.696C300.148 354.677 298.889 356.064 297.993 357.856C297.097 359.605 296.649 361.675 296.649 364.064C296.649 366.453 297.14 368.565 298.121 370.4C299.145 372.192 300.553 373.579 302.345 374.56C304.137 375.541 306.185 376.032 308.489 376.032C312.713 376.032 316.169 374.24 318.857 370.656ZM323.401 366.112H294.921V361.696H322.377L323.401 363.936V366.112ZM348.394 347.744V353.376H346.986C345.066 353.376 343.295 353.845 341.674 354.784C340.095 355.68 338.815 357.109 337.834 359.072C336.895 360.992 336.426 363.509 336.426 366.624V380H330.474V348.256H336.362V358.432H335.466C335.935 355.744 336.789 353.632 338.026 352.096C339.306 350.56 340.778 349.451 342.442 348.768C344.106 348.085 345.813 347.744 347.562 347.744H348.394ZM385.672 376.928C385.672 380.171 384.925 383.029 383.432 385.504C381.981 387.979 379.976 389.92 377.416 391.328C374.856 392.736 371.912 393.44 368.584 393.44C365.555 393.44 362.803 392.907 360.328 391.84C357.853 390.816 355.805 389.387 354.184 387.552L357.896 383.584C359.091 385.077 360.541 386.251 362.248 387.104C363.997 387.957 366.067 388.384 368.456 388.384C370.717 388.384 372.68 387.893 374.344 386.912C376.051 385.973 377.373 384.651 378.312 382.944C379.251 381.28 379.72 379.317 379.72 377.056V364.832C379.72 362.101 379.208 359.819 378.184 357.984C377.16 356.149 375.816 354.763 374.152 353.824C372.531 352.843 370.76 352.352 368.84 352.352C366.749 352.352 364.872 352.864 363.208 353.888C361.587 354.912 360.328 356.299 359.432 358.048C358.536 359.755 358.088 361.696 358.088 363.872C358.088 366.091 358.536 368.053 359.432 369.76C360.371 371.467 361.651 372.811 363.272 373.792C364.936 374.731 366.877 375.2 369.096 375.2C371.059 375.2 372.851 374.795 374.472 373.984C376.093 373.173 377.416 372.064 378.44 370.656C379.507 369.205 380.125 367.563 380.296 365.728L381.512 366.944C381.811 369.504 381.384 371.787 380.232 373.792C379.123 375.797 377.501 377.397 375.368 378.592C373.277 379.744 370.845 380.32 368.072 380.32C365 380.32 362.227 379.637 359.752 378.272C357.32 376.864 355.4 374.923 353.992 372.448C352.584 369.931 351.88 367.072 351.88 363.872C351.88 360.629 352.584 357.771 353.992 355.296C355.443 352.779 357.363 350.816 359.752 349.408C362.184 347.957 364.893 347.232 367.88 347.232C370.056 347.232 372.061 347.637 373.896 348.448C375.773 349.259 377.352 350.475 378.632 352.096C379.912 353.675 380.744 355.637 381.128 357.984H379.784V348.256H385.672V376.928ZM418.099 348.256H424.179L408.371 385.056C407.39 387.403 406.131 389.216 404.595 390.496C403.102 391.776 400.947 392.416 398.131 392.416H394.675V387.424H398.003C399.326 387.424 400.414 387.083 401.267 386.4C402.163 385.76 402.888 384.8 403.443 383.52L404.787 380.128L391.091 348.256H397.427L408.883 376.736H406.579L418.099 348.256ZM469.107 375.776H464.499L446.259 337.696L448.883 337.632V380H442.931V334.24H450.547L468.467 371.872H465.267L483.251 334.24H490.675V380H484.723V337.632L487.347 337.696L469.107 375.776ZM515.779 381.024C512.451 381.024 509.507 380.299 506.947 378.848C504.387 377.397 502.382 375.413 500.931 372.896C499.48 370.336 498.755 367.413 498.755 364.128C498.755 360.843 499.48 357.941 500.931 355.424C502.382 352.907 504.387 350.923 506.947 349.472C509.507 347.979 512.451 347.232 515.779 347.232C519.107 347.232 522.03 347.979 524.547 349.472C527.107 350.923 529.112 352.907 530.563 355.424C532.056 357.941 532.803 360.843 532.803 364.128C532.803 367.413 532.056 370.336 530.563 372.896C529.112 375.413 527.107 377.397 524.547 378.848C522.03 380.299 519.107 381.024 515.779 381.024ZM515.779 375.904C517.912 375.904 519.79 375.413 521.411 374.432C523.032 373.451 524.291 372.064 525.187 370.272C526.083 368.48 526.531 366.432 526.531 364.128C526.531 361.824 526.083 359.797 525.187 358.048C524.291 356.256 523.032 354.869 521.411 353.888C519.79 352.864 517.912 352.352 515.779 352.352C513.646 352.352 511.747 352.864 510.083 353.888C508.462 354.869 507.203 356.256 506.307 358.048C505.411 359.797 504.963 361.824 504.963 364.128C504.963 366.432 505.411 368.48 506.307 370.272C507.203 372.064 508.462 373.451 510.083 374.432C511.747 375.413 513.646 375.904 515.779 375.904ZM572.297 380H566.409V371.744L566.345 371.552V364.832C566.345 362.357 565.876 360.181 564.937 358.304C564.041 356.427 562.761 354.976 561.097 353.952C559.476 352.885 557.598 352.352 555.465 352.352C553.332 352.352 551.454 352.864 549.833 353.888C548.212 354.912 546.953 356.32 546.057 358.112C545.161 359.861 544.713 361.867 544.713 364.128C544.713 366.389 545.182 368.416 546.121 370.208C547.06 372 548.34 373.408 549.961 374.432C551.625 375.413 553.545 375.904 555.721 375.904C557.684 375.904 559.476 375.52 561.097 374.752C562.718 373.941 564.041 372.811 565.065 371.36C566.132 369.909 566.75 368.267 566.921 366.432L568.137 367.648C568.393 370.165 567.966 372.448 566.857 374.496C565.79 376.501 564.212 378.101 562.121 379.296C560.03 380.448 557.556 381.024 554.697 381.024C551.582 381.024 548.788 380.299 546.313 378.848C543.881 377.397 541.961 375.413 540.553 372.896C539.188 370.336 538.505 367.413 538.505 364.128C538.505 360.885 539.188 358.005 540.553 355.488C541.961 352.928 543.881 350.923 546.313 349.472C548.745 347.979 551.476 347.232 554.505 347.232C556.852 347.232 558.964 347.68 560.841 348.576C562.718 349.472 564.276 350.731 565.513 352.352C566.75 353.973 567.518 355.851 567.817 357.984H566.345V333.92H572.297V380ZM607.732 370.656L611.444 374.496C609.78 376.544 607.732 378.144 605.3 379.296C602.911 380.448 600.201 381.024 597.172 381.024C593.716 381.024 590.644 380.299 587.956 378.848C585.268 377.397 583.156 375.413 581.62 372.896C580.127 370.336 579.38 367.413 579.38 364.128C579.38 360.843 580.105 357.941 581.556 355.424C583.007 352.864 585.012 350.859 587.572 349.408C590.132 347.957 593.012 347.232 596.212 347.232C599.327 347.232 602.079 347.957 604.468 349.408C606.9 350.816 608.799 352.779 610.164 355.296C611.572 357.771 612.276 360.651 612.276 363.936V364.32H606.26V363.744C606.26 361.44 605.833 359.435 604.98 357.728C604.127 355.979 602.932 354.635 601.396 353.696C599.903 352.715 598.175 352.224 596.212 352.224C594.121 352.224 592.265 352.715 590.644 353.696C589.023 354.677 587.764 356.064 586.868 357.856C585.972 359.605 585.524 361.675 585.524 364.064C585.524 366.453 586.015 368.565 586.996 370.4C588.02 372.192 589.428 373.579 591.22 374.56C593.012 375.541 595.06 376.032 597.364 376.032C601.588 376.032 605.044 374.24 607.732 370.656ZM612.276 366.112H583.796V361.696H611.252L612.276 363.936V366.112ZM625.301 380H619.349V333.92H625.301V380ZM660.732 370.656L664.444 374.496C662.78 376.544 660.732 378.144 658.3 379.296C655.911 380.448 653.201 381.024 650.172 381.024C646.716 381.024 643.644 380.299 640.956 378.848C638.268 377.397 636.156 375.413 634.62 372.896C633.127 370.336 632.38 367.413 632.38 364.128C632.38 360.843 633.105 357.941 634.556 355.424C636.007 352.864 638.012 350.859 640.572 349.408C643.132 347.957 646.012 347.232 649.212 347.232C652.327 347.232 655.079 347.957 657.468 349.408C659.9 350.816 661.799 352.779 663.164 355.296C664.572 357.771 665.276 360.651 665.276 363.936V364.32H659.26V363.744C659.26 361.44 658.833 359.435 657.98 357.728C657.127 355.979 655.932 354.635 654.396 353.696C652.903 352.715 651.175 352.224 649.212 352.224C647.121 352.224 645.265 352.715 643.644 353.696C642.023 354.677 640.764 356.064 639.868 357.856C638.972 359.605 638.524 361.675 638.524 364.064C638.524 366.453 639.015 368.565 639.996 370.4C641.02 372.192 642.428 373.579 644.22 374.56C646.012 375.541 648.06 376.032 650.364 376.032C654.588 376.032 658.044 374.24 660.732 370.656ZM665.276 366.112H636.796V361.696H664.252L665.276 363.936V366.112ZM690.269 347.744V353.376H688.861C686.941 353.376 685.17 353.845 683.549 354.784C681.97 355.68 680.69 357.109 679.709 359.072C678.77 360.992 678.301 363.509 678.301 366.624V380H672.349V348.256H678.237V358.432H677.341C677.81 355.744 678.664 353.632 679.901 352.096C681.181 350.56 682.653 349.451 684.317 348.768C685.981 348.085 687.688 347.744 689.437 347.744H690.269ZM693.539 375.136L697.315 371.296C698.808 372.832 700.515 374.048 702.435 374.944C704.355 375.797 706.446 376.224 708.707 376.224C711.096 376.224 713.038 375.755 714.531 374.816C716.024 373.835 716.771 372.597 716.771 371.104C716.771 369.739 716.131 368.693 714.851 367.968C713.571 367.2 711.352 366.603 708.195 366.176C703.459 365.493 700.067 364.448 698.019 363.04C696.014 361.589 695.011 359.627 695.011 357.152C695.011 355.189 695.587 353.461 696.739 351.968C697.891 350.475 699.47 349.323 701.475 348.512C703.48 347.659 705.784 347.232 708.387 347.232C711.288 347.232 713.891 347.744 716.195 348.768C718.499 349.792 720.504 351.221 722.211 353.056L718.499 356.896C717.219 355.403 715.726 354.229 714.019 353.376C712.355 352.48 710.478 352.032 708.387 352.032C706.211 352.032 704.419 352.48 703.011 353.376C701.646 354.272 700.963 355.424 700.963 356.832C700.963 357.941 701.56 358.816 702.755 359.456C703.992 360.053 706.104 360.565 709.091 360.992C713.912 361.675 717.368 362.784 719.459 364.32C721.592 365.856 722.659 368.011 722.659 370.784C722.659 372.789 722.062 374.581 720.867 376.16C719.672 377.696 718.008 378.891 715.875 379.744C713.784 380.597 711.352 381.024 708.579 381.024C705.464 381.024 702.648 380.512 700.131 379.488C697.656 378.421 695.459 376.971 693.539 375.136ZM779.987 360.8L772.179 371.488C769.448 374.987 766.782 377.461 764.179 378.912C761.576 380.32 758.675 381.024 755.475 381.024C752.446 381.024 749.8 380.469 747.539 379.36C745.32 378.208 743.592 376.672 742.355 374.752C741.16 372.789 740.563 370.613 740.563 368.224C740.563 364.811 741.736 361.888 744.083 359.456C746.472 356.981 750.035 354.997 754.771 353.504L756.243 357.408C753 358.603 750.611 360.075 749.075 361.824C747.582 363.531 746.835 365.493 746.835 367.712C746.835 370.059 747.646 372.043 749.267 373.664C750.888 375.243 753.064 376.032 755.795 376.032C757.203 376.032 758.547 375.797 759.827 375.328C761.15 374.859 762.472 374.048 763.795 372.896C765.16 371.744 766.568 370.144 768.019 368.096L775.635 357.664L779.987 360.8ZM781.331 376.608L777.491 380.576L753.619 357.984L752.659 357.152C750.696 355.275 749.16 353.632 748.051 352.224C746.942 350.773 746.152 349.429 745.683 348.192C745.214 346.912 744.979 345.568 744.979 344.16C744.979 342.197 745.512 340.384 746.579 338.72C747.688 337.056 749.16 335.733 750.995 334.752C752.872 333.728 754.984 333.216 757.331 333.216C759.635 333.216 761.726 333.728 763.603 334.752C765.48 335.733 766.952 337.056 768.019 338.72C769.086 340.341 769.619 342.176 769.619 344.224C769.619 346.315 769.064 348.192 767.955 349.856C766.846 351.52 765.331 352.971 763.411 354.208C761.491 355.445 759.358 356.469 757.011 357.28L755.219 353.44C757.864 352.544 759.976 351.392 761.555 349.984C763.134 348.576 763.923 346.784 763.923 344.608C763.923 342.731 763.304 341.173 762.067 339.936C760.83 338.699 759.251 338.08 757.331 338.08C755.539 338.08 754.003 338.699 752.723 339.936C751.443 341.173 750.803 342.709 750.803 344.544C750.803 345.568 751.016 346.592 751.443 347.616C751.912 348.64 752.638 349.707 753.619 350.816C754.6 351.925 755.902 353.163 757.523 354.528L758.675 355.488L781.331 376.608ZM222.264 461H216.12V415.24H234.168C237.283 415.24 239.992 415.795 242.296 416.904C244.6 418.013 246.392 419.549 247.672 421.512C248.995 423.475 249.656 425.779 249.656 428.424C249.656 431.069 248.995 433.373 247.672 435.336C246.392 437.299 244.6 438.835 242.296 439.944C239.992 441.053 237.283 441.608 234.168 441.608H221.624V436.296H234.168C237.027 436.296 239.267 435.613 240.888 434.248C242.552 432.84 243.384 430.899 243.384 428.424C243.384 425.949 242.552 424.029 240.888 422.664C239.267 421.256 237.027 420.552 234.168 420.552H222.264V461ZM254.2 461H246.456L229.304 439.688H236.472L254.2 461ZM283.857 451.656L287.569 455.496C285.905 457.544 283.857 459.144 281.425 460.296C279.036 461.448 276.326 462.024 273.297 462.024C269.841 462.024 266.769 461.299 264.081 459.848C261.393 458.397 259.281 456.413 257.745 453.896C256.252 451.336 255.505 448.413 255.505 445.128C255.505 441.843 256.23 438.941 257.681 436.424C259.132 433.864 261.137 431.859 263.697 430.408C266.257 428.957 269.137 428.232 272.337 428.232C275.452 428.232 278.204 428.957 280.593 430.408C283.025 431.816 284.924 433.779 286.289 436.296C287.697 438.771 288.401 441.651 288.401 444.936V445.32H282.385V444.744C282.385 442.44 281.958 440.435 281.105 438.728C280.252 436.979 279.057 435.635 277.521 434.696C276.028 433.715 274.3 433.224 272.337 433.224C270.246 433.224 268.39 433.715 266.769 434.696C265.148 435.677 263.889 437.064 262.993 438.856C262.097 440.605 261.649 442.675 261.649 445.064C261.649 447.453 262.14 449.565 263.121 451.4C264.145 453.192 265.553 454.579 267.345 455.56C269.137 456.541 271.185 457.032 273.489 457.032C277.713 457.032 281.169 455.24 283.857 451.656ZM288.401 447.112H259.921V442.696H287.377L288.401 444.936V447.112ZM292.664 456.136L296.44 452.296C297.933 453.832 299.64 455.048 301.56 455.944C303.48 456.797 305.571 457.224 307.832 457.224C310.221 457.224 312.163 456.755 313.656 455.816C315.149 454.835 315.896 453.597 315.896 452.104C315.896 450.739 315.256 449.693 313.976 448.968C312.696 448.2 310.477 447.603 307.32 447.176C302.584 446.493 299.192 445.448 297.144 444.04C295.139 442.589 294.136 440.627 294.136 438.152C294.136 436.189 294.712 434.461 295.864 432.968C297.016 431.475 298.595 430.323 300.6 429.512C302.605 428.659 304.909 428.232 307.512 428.232C310.413 428.232 313.016 428.744 315.32 429.768C317.624 430.792 319.629 432.221 321.336 434.056L317.624 437.896C316.344 436.403 314.851 435.229 313.144 434.376C311.48 433.48 309.603 433.032 307.512 433.032C305.336 433.032 303.544 433.48 302.136 434.376C300.771 435.272 300.088 436.424 300.088 437.832C300.088 438.941 300.685 439.816 301.88 440.456C303.117 441.053 305.229 441.565 308.216 441.992C313.037 442.675 316.493 443.784 318.584 445.32C320.717 446.856 321.784 449.011 321.784 451.784C321.784 453.789 321.187 455.581 319.992 457.16C318.797 458.696 317.133 459.891 315 460.744C312.909 461.597 310.477 462.024 307.704 462.024C304.589 462.024 301.773 461.512 299.256 460.488C296.781 459.421 294.584 457.971 292.664 456.136ZM355.482 451.656L359.194 455.496C357.53 457.544 355.482 459.144 353.05 460.296C350.661 461.448 347.951 462.024 344.922 462.024C341.466 462.024 338.394 461.299 335.706 459.848C333.018 458.397 330.906 456.413 329.37 453.896C327.877 451.336 327.13 448.413 327.13 445.128C327.13 441.843 327.855 438.941 329.306 436.424C330.757 433.864 332.762 431.859 335.322 430.408C337.882 428.957 340.762 428.232 343.962 428.232C347.077 428.232 349.829 428.957 352.218 430.408C354.65 431.816 356.549 433.779 357.914 436.296C359.322 438.771 360.026 441.651 360.026 444.936V445.32H354.01V444.744C354.01 442.44 353.583 440.435 352.73 438.728C351.877 436.979 350.682 435.635 349.146 434.696C347.653 433.715 345.925 433.224 343.962 433.224C341.871 433.224 340.015 433.715 338.394 434.696C336.773 435.677 335.514 437.064 334.618 438.856C333.722 440.605 333.274 442.675 333.274 445.064C333.274 447.453 333.765 449.565 334.746 451.4C335.77 453.192 337.178 454.579 338.97 455.56C340.762 456.541 342.81 457.032 345.114 457.032C349.338 457.032 352.794 455.24 355.482 451.656ZM360.026 447.112H331.546V442.696H359.002L360.026 444.936V447.112ZM394.561 461H388.993V454.728L388.801 453.192V441.352C388.801 438.835 387.99 436.851 386.369 435.4C384.748 433.907 382.55 433.16 379.777 433.16C377.772 433.16 375.937 433.587 374.273 434.44C372.609 435.251 371.158 436.381 369.921 437.832L366.209 433.992C367.958 432.157 369.964 430.749 372.225 429.768C374.529 428.744 377.089 428.232 379.905 428.232C382.806 428.232 385.345 428.765 387.521 429.832C389.74 430.899 391.468 432.392 392.705 434.312C393.942 436.189 394.561 438.472 394.561 441.16V461ZM377.281 462.024C374.892 462.024 372.78 461.597 370.945 460.744C369.11 459.848 367.681 458.632 366.657 457.096C365.633 455.56 365.121 453.811 365.121 451.848C365.121 449.629 365.74 447.752 366.977 446.216C368.257 444.637 370.006 443.443 372.225 442.632C374.444 441.779 376.982 441.352 379.841 441.352H389.505V445.768H380.481C377.793 445.768 375.574 446.259 373.825 447.24C372.118 448.179 371.265 449.651 371.265 451.656C371.265 453.363 371.905 454.728 373.185 455.752C374.508 456.776 376.214 457.288 378.305 457.288C380.353 457.288 382.209 456.883 383.873 456.072C385.537 455.261 386.86 454.131 387.841 452.68C388.865 451.187 389.441 449.48 389.569 447.56L391.681 448.712C391.681 451.272 391.062 453.555 389.825 455.56C388.588 457.565 386.881 459.144 384.705 460.296C382.572 461.448 380.097 462.024 377.281 462.024ZM420.457 428.744V434.376H419.049C417.129 434.376 415.358 434.845 413.737 435.784C412.158 436.68 410.878 438.109 409.897 440.072C408.958 441.992 408.489 444.509 408.489 447.624V461H402.536V429.256H408.425V439.432H407.529C407.998 436.744 408.851 434.632 410.089 433.096C411.369 431.56 412.841 430.451 414.505 429.768C416.169 429.085 417.875 428.744 419.625 428.744H420.457ZM450.119 451.976L454.151 455.816C452.615 457.736 450.716 459.251 448.455 460.36C446.193 461.469 443.633 462.024 440.775 462.024C437.532 462.024 434.631 461.299 432.071 459.848C429.553 458.397 427.569 456.413 426.119 453.896C424.668 451.336 423.943 448.413 423.943 445.128C423.943 441.885 424.668 439.005 426.119 436.488C427.569 433.928 429.575 431.923 432.135 430.472C434.737 428.979 437.66 428.232 440.903 428.232C443.719 428.232 446.236 428.787 448.455 429.896C450.716 431.005 452.615 432.52 454.151 434.44L450.119 438.28C449.137 436.787 447.9 435.592 446.407 434.696C444.913 433.8 443.121 433.352 441.031 433.352C438.897 433.352 436.999 433.864 435.335 434.888C433.713 435.869 432.433 437.256 431.495 439.048C430.599 440.797 430.151 442.824 430.151 445.128C430.151 447.432 430.599 449.48 431.495 451.272C432.433 453.021 433.713 454.408 435.335 455.432C436.999 456.413 438.897 456.904 441.031 456.904C443.164 456.904 444.956 456.456 446.407 455.56C447.9 454.664 449.137 453.469 450.119 451.976ZM490.295 461H484.343V442.696C484.343 439.581 483.639 437.256 482.231 435.72C480.823 434.141 478.924 433.352 476.535 433.352C474.828 433.352 473.207 433.8 471.671 434.696C470.135 435.592 468.898 437 467.959 438.92C467.02 440.84 466.551 443.315 466.551 446.344V461H460.599V414.92H466.551V438.984H465.655C466.124 436.296 466.956 434.184 468.151 432.648C469.388 431.069 470.86 429.939 472.567 429.256C474.274 428.573 476.044 428.232 477.879 428.232C481.719 428.232 484.748 429.427 486.967 431.816C489.186 434.163 490.295 437.576 490.295 442.056V461ZM525.295 451.656L529.007 455.496C527.343 457.544 525.295 459.144 522.863 460.296C520.473 461.448 517.764 462.024 514.735 462.024C511.279 462.024 508.207 461.299 505.519 459.848C502.831 458.397 500.719 456.413 499.183 453.896C497.689 451.336 496.943 448.413 496.943 445.128C496.943 441.843 497.668 438.941 499.119 436.424C500.569 433.864 502.575 431.859 505.135 430.408C507.695 428.957 510.575 428.232 513.775 428.232C516.889 428.232 519.641 428.957 522.031 430.408C524.463 431.816 526.361 433.779 527.727 436.296C529.135 438.771 529.839 441.651 529.839 444.936V445.32H523.823V444.744C523.823 442.44 523.396 440.435 522.543 438.728C521.689 436.979 520.495 435.635 518.959 434.696C517.465 433.715 515.737 433.224 513.775 433.224C511.684 433.224 509.828 433.715 508.207 434.696C506.585 435.677 505.327 437.064 504.431 438.856C503.535 440.605 503.087 442.675 503.087 445.064C503.087 447.453 503.577 449.565 504.559 451.4C505.583 453.192 506.991 454.579 508.783 455.56C510.575 456.541 512.623 457.032 514.927 457.032C519.151 457.032 522.607 455.24 525.295 451.656ZM529.839 447.112H501.359V442.696H528.815L529.839 444.936V447.112ZM554.832 428.744V434.376H553.424C551.504 434.376 549.733 434.845 548.112 435.784C546.533 436.68 545.253 438.109 544.272 440.072C543.333 441.992 542.864 444.509 542.864 447.624V461H536.911V429.256H542.8V439.432H541.904C542.373 436.744 543.226 434.632 544.464 433.096C545.744 431.56 547.216 430.451 548.88 429.768C550.544 429.085 552.25 428.744 554 428.744H554.832ZM558.102 456.136L561.878 452.296C563.371 453.832 565.078 455.048 566.998 455.944C568.918 456.797 571.008 457.224 573.27 457.224C575.659 457.224 577.6 456.755 579.094 455.816C580.587 454.835 581.334 453.597 581.334 452.104C581.334 450.739 580.694 449.693 579.414 448.968C578.134 448.2 575.915 447.603 572.758 447.176C568.022 446.493 564.63 445.448 562.582 444.04C560.576 442.589 559.574 440.627 559.574 438.152C559.574 436.189 560.15 434.461 561.302 432.968C562.454 431.475 564.032 430.323 566.038 429.512C568.043 428.659 570.347 428.232 572.95 428.232C575.851 428.232 578.454 428.744 580.758 429.768C583.062 430.792 585.067 432.221 586.774 434.056L583.062 437.896C581.782 436.403 580.288 435.229 578.582 434.376C576.918 433.48 575.04 433.032 572.95 433.032C570.774 433.032 568.982 433.48 567.574 434.376C566.208 435.272 565.526 436.424 565.526 437.832C565.526 438.941 566.123 439.816 567.318 440.456C568.555 441.053 570.667 441.565 573.654 441.992C578.475 442.675 581.931 443.784 584.022 445.32C586.155 446.856 587.222 449.011 587.222 451.784C587.222 453.789 586.624 455.581 585.43 457.16C584.235 458.696 582.571 459.891 580.438 460.744C578.347 461.597 575.915 462.024 573.142 462.024C570.027 462.024 567.211 461.512 564.694 460.488C562.219 459.421 560.022 457.971 558.102 456.136Z" fill="#F5F5F5"/>
<path d="M1852.82 368.096H1827.22V362.784H1852.82V368.096ZM1861.78 380H1855.25L1838.93 338.208H1841.24L1824.92 380H1818.64L1836.82 334.24H1843.54L1861.78 380ZM1897.83 380H1891.87V361.696C1891.87 358.581 1891.17 356.256 1889.76 354.72C1888.35 353.141 1886.46 352.352 1884.07 352.352C1882.36 352.352 1880.74 352.8 1879.2 353.696C1877.67 354.592 1876.43 356 1875.49 357.92C1874.55 359.84 1874.08 362.315 1874.08 365.344V380H1868.13V348.256H1874.02V357.984H1873.12C1873.59 355.296 1874.44 353.184 1875.68 351.648C1876.92 350.069 1878.39 348.939 1880.1 348.256C1881.8 347.573 1883.58 347.232 1885.41 347.232C1889.25 347.232 1892.28 348.427 1894.5 350.816C1896.72 353.163 1897.83 356.576 1897.83 361.056V380ZM1933.53 380H1927.96V373.728L1927.77 372.192V360.352C1927.77 357.835 1926.96 355.851 1925.34 354.4C1923.72 352.907 1921.52 352.16 1918.75 352.16C1916.74 352.16 1914.91 352.587 1913.24 353.44C1911.58 354.251 1910.13 355.381 1908.89 356.832L1905.18 352.992C1906.93 351.157 1908.93 349.749 1911.19 348.768C1913.5 347.744 1916.06 347.232 1918.87 347.232C1921.78 347.232 1924.31 347.765 1926.49 348.832C1928.71 349.899 1930.44 351.392 1931.67 353.312C1932.91 355.189 1933.53 357.472 1933.53 360.16V380ZM1916.25 381.024C1913.86 381.024 1911.75 380.597 1909.91 379.744C1908.08 378.848 1906.65 377.632 1905.63 376.096C1904.6 374.56 1904.09 372.811 1904.09 370.848C1904.09 368.629 1904.71 366.752 1905.95 365.216C1907.23 363.637 1908.98 362.443 1911.19 361.632C1913.41 360.779 1915.95 360.352 1918.81 360.352H1928.47V364.768H1919.45C1916.76 364.768 1914.54 365.259 1912.79 366.24C1911.09 367.179 1910.23 368.651 1910.23 370.656C1910.23 372.363 1910.87 373.728 1912.15 374.752C1913.48 375.776 1915.18 376.288 1917.27 376.288C1919.32 376.288 1921.18 375.883 1922.84 375.072C1924.51 374.261 1925.83 373.131 1926.81 371.68C1927.83 370.187 1928.41 368.48 1928.54 366.56L1930.65 367.712C1930.65 370.272 1930.03 372.555 1928.79 374.56C1927.56 376.565 1925.85 378.144 1923.67 379.296C1921.54 380.448 1919.07 381.024 1916.25 381.024ZM1947.46 380H1941.51V333.92H1947.46V380ZM1979.88 348.256H1985.96L1970.15 385.056C1969.17 387.403 1967.91 389.216 1966.38 390.496C1964.88 391.776 1962.73 392.416 1959.91 392.416H1956.46V387.424H1959.78C1961.11 387.424 1962.19 387.083 1963.05 386.4C1963.94 385.76 1964.67 384.8 1965.22 383.52L1966.57 380.128L1952.87 348.256H1959.21L1970.66 376.736H1968.36L1979.88 348.256ZM1987.32 375.136L1991.1 371.296C1992.59 372.832 1994.3 374.048 1996.22 374.944C1998.14 375.797 2000.23 376.224 2002.49 376.224C2004.88 376.224 2006.82 375.755 2008.31 374.816C2009.81 373.835 2010.55 372.597 2010.55 371.104C2010.55 369.739 2009.91 368.693 2008.63 367.968C2007.35 367.2 2005.13 366.603 2001.98 366.176C1997.24 365.493 1993.85 364.448 1991.8 363.04C1989.79 361.589 1988.79 359.627 1988.79 357.152C1988.79 355.189 1989.37 353.461 1990.52 351.968C1991.67 350.475 1993.25 349.323 1995.26 348.512C1997.26 347.659 1999.57 347.232 2002.17 347.232C2005.07 347.232 2007.67 347.744 2009.98 348.768C2012.28 349.792 2014.29 351.221 2015.99 353.056L2012.28 356.896C2011 355.403 2009.51 354.229 2007.8 353.376C2006.14 352.48 2004.26 352.032 2002.17 352.032C1999.99 352.032 1998.2 352.48 1996.79 353.376C1995.43 354.272 1994.74 355.424 1994.74 356.832C1994.74 357.941 1995.34 358.816 1996.54 359.456C1997.77 360.053 1999.89 360.565 2002.87 360.992C2007.69 361.675 2011.15 362.784 2013.24 364.32C2015.37 365.856 2016.44 368.011 2016.44 370.784C2016.44 372.789 2015.84 374.581 2014.65 376.16C2013.45 377.696 2011.79 378.891 2009.66 379.744C2007.57 380.597 2005.13 381.024 2002.36 381.024C1999.25 381.024 1996.43 380.512 1993.91 379.488C1991.44 378.421 1989.24 376.971 1987.32 375.136ZM2042.33 380H2034.71C2032.24 380 2030.34 379.36 2029.02 378.08C2027.74 376.757 2027.1 374.88 2027.1 372.448V339.296H2033.05V371.68C2033.05 372.747 2033.33 373.579 2033.88 374.176C2034.44 374.731 2035.25 375.008 2036.31 375.008H2042.33V380ZM2041.88 353.248H2020.89V348.256H2041.88V353.248ZM2046.26 375.136L2050.03 371.296C2051.53 372.832 2053.23 374.048 2055.15 374.944C2057.07 375.797 2059.16 376.224 2061.43 376.224C2063.82 376.224 2065.76 375.755 2067.25 374.816C2068.74 373.835 2069.49 372.597 2069.49 371.104C2069.49 369.739 2068.85 368.693 2067.57 367.968C2066.29 367.2 2064.07 366.603 2060.91 366.176C2056.18 365.493 2052.79 364.448 2050.74 363.04C2048.73 361.589 2047.73 359.627 2047.73 357.152C2047.73 355.189 2048.31 353.461 2049.46 351.968C2050.61 350.475 2052.19 349.323 2054.19 348.512C2056.2 347.659 2058.5 347.232 2061.11 347.232C2064.01 347.232 2066.61 347.744 2068.91 348.768C2071.22 349.792 2073.22 351.221 2074.93 353.056L2071.22 356.896C2069.94 355.403 2068.44 354.229 2066.74 353.376C2065.07 352.48 2063.2 352.032 2061.11 352.032C2058.93 352.032 2057.14 352.48 2055.73 353.376C2054.36 354.272 2053.68 355.424 2053.68 356.832C2053.68 357.941 2054.28 358.816 2055.47 359.456C2056.71 360.053 2058.82 360.565 2061.81 360.992C2066.63 361.675 2070.09 362.784 2072.18 364.32C2074.31 365.856 2075.38 368.011 2075.38 370.784C2075.38 372.789 2074.78 374.581 2073.59 376.16C2072.39 377.696 2070.73 378.891 2068.59 379.744C2066.5 380.597 2064.07 381.024 2061.3 381.024C2058.18 381.024 2055.37 380.512 2052.85 379.488C2050.38 378.421 2048.18 376.971 2046.26 375.136ZM2132.71 360.8L2124.9 371.488C2122.17 374.987 2119.5 377.461 2116.9 378.912C2114.3 380.32 2111.39 381.024 2108.19 381.024C2105.16 381.024 2102.52 380.469 2100.26 379.36C2098.04 378.208 2096.31 376.672 2095.07 374.752C2093.88 372.789 2093.28 370.613 2093.28 368.224C2093.28 364.811 2094.46 361.888 2096.8 359.456C2099.19 356.981 2102.75 354.997 2107.49 353.504L2108.96 357.408C2105.72 358.603 2103.33 360.075 2101.79 361.824C2100.3 363.531 2099.55 365.493 2099.55 367.712C2099.55 370.059 2100.36 372.043 2101.99 373.664C2103.61 375.243 2105.78 376.032 2108.51 376.032C2109.92 376.032 2111.27 375.797 2112.55 375.328C2113.87 374.859 2115.19 374.048 2116.51 372.896C2117.88 371.744 2119.29 370.144 2120.74 368.096L2128.35 357.664L2132.71 360.8ZM2134.05 376.608L2130.21 380.576L2106.34 357.984L2105.38 357.152C2103.42 355.275 2101.88 353.632 2100.77 352.224C2099.66 350.773 2098.87 349.429 2098.4 348.192C2097.93 346.912 2097.7 345.568 2097.7 344.16C2097.7 342.197 2098.23 340.384 2099.3 338.72C2100.41 337.056 2101.88 335.733 2103.71 334.752C2105.59 333.728 2107.7 333.216 2110.05 333.216C2112.35 333.216 2114.44 333.728 2116.32 334.752C2118.2 335.733 2119.67 337.056 2120.74 338.72C2121.8 340.341 2122.34 342.176 2122.34 344.224C2122.34 346.315 2121.78 348.192 2120.67 349.856C2119.56 351.52 2118.05 352.971 2116.13 354.208C2114.21 355.445 2112.08 356.469 2109.73 357.28L2107.94 353.44C2110.58 352.544 2112.7 351.392 2114.27 349.984C2115.85 348.576 2116.64 346.784 2116.64 344.608C2116.64 342.731 2116.02 341.173 2114.79 339.936C2113.55 338.699 2111.97 338.08 2110.05 338.08C2108.26 338.08 2106.72 338.699 2105.44 339.936C2104.16 341.173 2103.52 342.709 2103.52 344.544C2103.52 345.568 2103.74 346.592 2104.16 347.616C2104.63 348.64 2105.36 349.707 2106.34 350.816C2107.32 351.925 2108.62 353.163 2110.24 354.528L2111.39 355.488L2134.05 376.608ZM1832.24 449.224L1836.53 453.384C1834.52 456.029 1831.92 458.141 1828.72 459.72C1825.52 461.256 1822 462.024 1818.16 462.024C1814.79 462.024 1811.67 461.427 1808.81 460.232C1806 459.037 1803.54 457.373 1801.45 455.24C1799.36 453.064 1797.72 450.525 1796.53 447.624C1795.37 444.723 1794.8 441.565 1794.8 438.152C1794.8 434.739 1795.4 431.581 1796.59 428.68C1797.78 425.736 1799.43 423.197 1801.52 421.064C1803.65 418.888 1806.15 417.203 1809.01 416.008C1811.86 414.813 1814.98 414.216 1818.35 414.216C1822.15 414.216 1825.62 415.005 1828.78 416.584C1831.94 418.12 1834.52 420.211 1836.53 422.856L1832.24 427.016C1830.7 424.797 1828.76 423.027 1826.41 421.704C1824.07 420.381 1821.38 419.72 1818.35 419.72C1815.11 419.72 1812.18 420.531 1809.58 422.152C1807.02 423.731 1805 425.907 1803.5 428.68C1802.01 431.411 1801.26 434.568 1801.26 438.152C1801.26 441.651 1802.01 444.787 1803.5 447.56C1805 450.333 1807.02 452.531 1809.58 454.152C1812.18 455.731 1815.11 456.52 1818.35 456.52C1821.38 456.52 1824.07 455.859 1826.41 454.536C1828.76 453.213 1830.7 451.443 1832.24 449.224ZM1858.62 462.024C1855.29 462.024 1852.35 461.299 1849.79 459.848C1847.23 458.397 1845.23 456.413 1843.77 453.896C1842.32 451.336 1841.6 448.413 1841.6 445.128C1841.6 441.843 1842.32 438.941 1843.77 436.424C1845.23 433.907 1847.23 431.923 1849.79 430.472C1852.35 428.979 1855.29 428.232 1858.62 428.232C1861.95 428.232 1864.87 428.979 1867.39 430.472C1869.95 431.923 1871.96 433.907 1873.41 436.424C1874.9 438.941 1875.65 441.843 1875.65 445.128C1875.65 448.413 1874.9 451.336 1873.41 453.896C1871.96 456.413 1869.95 458.397 1867.39 459.848C1864.87 461.299 1861.95 462.024 1858.62 462.024ZM1858.62 456.904C1860.76 456.904 1862.63 456.413 1864.25 455.432C1865.88 454.451 1867.13 453.064 1868.03 451.272C1868.93 449.48 1869.37 447.432 1869.37 445.128C1869.37 442.824 1868.93 440.797 1868.03 439.048C1867.13 437.256 1865.88 435.869 1864.25 434.888C1862.63 433.864 1860.76 433.352 1858.62 433.352C1856.49 433.352 1854.59 433.864 1852.93 434.888C1851.31 435.869 1850.05 437.256 1849.15 439.048C1848.25 440.797 1847.81 442.824 1847.81 445.128C1847.81 447.432 1848.25 449.48 1849.15 451.272C1850.05 453.064 1851.31 454.451 1852.93 455.432C1854.59 456.413 1856.49 456.904 1858.62 456.904ZM1912.39 461H1906.44V442.696C1906.44 439.581 1905.73 437.256 1904.32 435.72C1902.92 434.141 1901.02 433.352 1898.63 433.352C1896.92 433.352 1895.3 433.8 1893.76 434.696C1892.23 435.592 1890.99 437 1890.05 438.92C1889.11 440.84 1888.64 443.315 1888.64 446.344V461H1882.69V429.256H1888.58V438.984H1887.68C1888.15 436.296 1889.01 434.184 1890.24 432.648C1891.48 431.069 1892.95 429.939 1894.66 429.256C1896.37 428.573 1898.14 428.232 1899.97 428.232C1903.81 428.232 1906.84 429.427 1909.06 431.816C1911.28 434.163 1912.39 437.576 1912.39 442.056V461ZM1917.82 456.136L1921.6 452.296C1923.09 453.832 1924.8 455.048 1926.72 455.944C1928.64 456.797 1930.73 457.224 1932.99 457.224C1935.38 457.224 1937.32 456.755 1938.81 455.816C1940.31 454.835 1941.05 453.597 1941.05 452.104C1941.05 450.739 1940.41 449.693 1939.13 448.968C1937.85 448.2 1935.63 447.603 1932.48 447.176C1927.74 446.493 1924.35 445.448 1922.3 444.04C1920.29 442.589 1919.29 440.627 1919.29 438.152C1919.29 436.189 1919.87 434.461 1921.02 432.968C1922.17 431.475 1923.75 430.323 1925.76 429.512C1927.76 428.659 1930.07 428.232 1932.67 428.232C1935.57 428.232 1938.17 428.744 1940.48 429.768C1942.78 430.792 1944.79 432.221 1946.49 434.056L1942.78 437.896C1941.5 436.403 1940.01 435.229 1938.3 434.376C1936.64 433.48 1934.76 433.032 1932.67 433.032C1930.49 433.032 1928.7 433.48 1927.29 434.376C1925.93 435.272 1925.24 436.424 1925.24 437.832C1925.24 438.941 1925.84 439.816 1927.04 440.456C1928.27 441.053 1930.39 441.565 1933.37 441.992C1938.19 442.675 1941.65 443.784 1943.74 445.32C1945.87 446.856 1946.94 449.011 1946.94 451.784C1946.94 453.789 1946.34 455.581 1945.15 457.16C1943.95 458.696 1942.29 459.891 1940.16 460.744C1938.07 461.597 1935.63 462.024 1932.86 462.024C1929.75 462.024 1926.93 461.512 1924.41 460.488C1921.94 459.421 1919.74 457.971 1917.82 456.136ZM1983 461H1977.11V454.856L1977.05 453.064V429.256H1983V461ZM1977.62 447.432L1978.84 448.712C1979.01 451.315 1978.54 453.619 1977.43 455.624C1976.37 457.587 1974.83 459.144 1972.82 460.296C1970.86 461.448 1968.58 462.024 1965.98 462.024C1962.18 462.024 1959.15 460.893 1956.89 458.632C1954.63 456.371 1953.5 453.107 1953.5 448.84V429.256H1959.45V448.2C1959.45 451.059 1960.13 453.235 1961.5 454.728C1962.9 456.179 1964.85 456.904 1967.32 456.904C1969.07 456.904 1970.69 456.52 1972.18 455.752C1973.68 454.941 1974.91 453.832 1975.9 452.424C1976.88 450.973 1977.45 449.309 1977.62 447.432ZM1997.39 461H1991.44V414.92H1997.39V461ZM2025.02 461H2017.4C2014.93 461 2013.03 460.36 2011.71 459.08C2010.43 457.757 2009.79 455.88 2009.79 453.448V420.296H2015.74V452.68C2015.74 453.747 2016.02 454.579 2016.57 455.176C2017.12 455.731 2017.94 456.008 2019 456.008H2025.02V461ZM2024.57 434.248H2003.58V429.256H2024.57V434.248ZM2059.22 461H2053.65V454.728L2053.46 453.192V441.352C2053.46 438.835 2052.65 436.851 2051.03 435.4C2049.4 433.907 2047.21 433.16 2044.43 433.16C2042.43 433.16 2040.59 433.587 2038.93 434.44C2037.27 435.251 2035.81 436.381 2034.58 437.832L2030.87 433.992C2032.61 432.157 2034.62 430.749 2036.88 429.768C2039.19 428.744 2041.75 428.232 2044.56 428.232C2047.46 428.232 2050 428.765 2052.18 429.832C2054.4 430.899 2056.12 432.392 2057.36 434.312C2058.6 436.189 2059.22 438.472 2059.22 441.16V461ZM2041.94 462.024C2039.55 462.024 2037.44 461.597 2035.6 460.744C2033.77 459.848 2032.34 458.632 2031.31 457.096C2030.29 455.56 2029.78 453.811 2029.78 451.848C2029.78 449.629 2030.4 447.752 2031.63 446.216C2032.91 444.637 2034.66 443.443 2036.88 442.632C2039.1 441.779 2041.64 441.352 2044.5 441.352H2054.16V445.768H2045.14C2042.45 445.768 2040.23 446.259 2038.48 447.24C2036.77 448.179 2035.92 449.651 2035.92 451.656C2035.92 453.363 2036.56 454.728 2037.84 455.752C2039.16 456.776 2040.87 457.288 2042.96 457.288C2045.01 457.288 2046.87 456.883 2048.53 456.072C2050.19 455.261 2051.52 454.131 2052.5 452.68C2053.52 451.187 2054.1 449.48 2054.23 447.56L2056.34 448.712C2056.34 451.272 2055.72 453.555 2054.48 455.56C2053.24 457.565 2051.54 459.144 2049.36 460.296C2047.23 461.448 2044.75 462.024 2041.94 462.024ZM2096.89 461H2090.94V442.696C2090.94 439.581 2090.23 437.256 2088.82 435.72C2087.42 434.141 2085.52 433.352 2083.13 433.352C2081.42 433.352 2079.8 433.8 2078.26 434.696C2076.73 435.592 2075.49 437 2074.55 438.92C2073.61 440.84 2073.14 443.315 2073.14 446.344V461H2067.19V429.256H2073.08V438.984H2072.18C2072.65 436.296 2073.51 434.184 2074.74 432.648C2075.98 431.069 2077.45 429.939 2079.16 429.256C2080.87 428.573 2082.64 428.232 2084.47 428.232C2088.31 428.232 2091.34 429.427 2093.56 431.816C2095.78 434.163 2096.89 437.576 2096.89 442.056V461ZM2123.83 461H2116.21C2113.74 461 2111.84 460.36 2110.52 459.08C2109.24 457.757 2108.6 455.88 2108.6 453.448V420.296H2114.55V452.68C2114.55 453.747 2114.83 454.579 2115.38 455.176C2115.94 455.731 2116.75 456.008 2117.81 456.008H2123.83V461ZM2123.38 434.248H2102.39V429.256H2123.38V434.248ZM2127.76 456.136L2131.53 452.296C2133.03 453.832 2134.73 455.048 2136.65 455.944C2138.57 456.797 2140.66 457.224 2142.93 457.224C2145.32 457.224 2147.26 456.755 2148.75 455.816C2150.24 454.835 2150.99 453.597 2150.99 452.104C2150.99 450.739 2150.35 449.693 2149.07 448.968C2147.79 448.2 2145.57 447.603 2142.41 447.176C2137.68 446.493 2134.29 445.448 2132.24 444.04C2130.23 442.589 2129.23 440.627 2129.23 438.152C2129.23 436.189 2129.81 434.461 2130.96 432.968C2132.11 431.475 2133.69 430.323 2135.69 429.512C2137.7 428.659 2140 428.232 2142.61 428.232C2145.51 428.232 2148.11 428.744 2150.41 429.768C2152.72 430.792 2154.72 432.221 2156.43 434.056L2152.72 437.896C2151.44 436.403 2149.94 435.229 2148.24 434.376C2146.57 433.48 2144.7 433.032 2142.61 433.032C2140.43 433.032 2138.64 433.48 2137.23 434.376C2135.86 435.272 2135.18 436.424 2135.18 437.832C2135.18 438.941 2135.78 439.816 2136.97 440.456C2138.21 441.053 2140.32 441.565 2143.31 441.992C2148.13 442.675 2151.59 443.784 2153.68 445.32C2155.81 446.856 2156.88 449.011 2156.88 451.784C2156.88 453.789 2156.28 455.581 2155.09 457.16C2153.89 458.696 2152.23 459.891 2150.09 460.744C2148 461.597 2145.57 462.024 2142.8 462.024C2139.68 462.024 2136.87 461.512 2134.35 460.488C2131.88 459.421 2129.68 457.971 2127.76 456.136Z" fill="#F5F5F5"/>
<path d="M3180.95 380H3174.81V334.24H3192.86C3195.97 334.24 3198.68 334.795 3200.98 335.904C3203.29 337.013 3205.08 338.549 3206.36 340.512C3207.68 342.475 3208.34 344.779 3208.34 347.424C3208.34 350.069 3207.68 352.373 3206.36 354.336C3205.08 356.299 3203.29 357.835 3200.98 358.944C3198.68 360.053 3195.97 360.608 3192.86 360.608H3180.31V355.296H3192.86C3195.71 355.296 3197.95 354.613 3199.58 353.248C3201.24 351.84 3202.07 349.899 3202.07 347.424C3202.07 344.949 3201.24 343.029 3199.58 341.664C3197.95 340.256 3195.71 339.552 3192.86 339.552H3180.95V380ZM3227.53 381.024C3224.2 381.024 3221.26 380.299 3218.7 378.848C3216.14 377.397 3214.13 375.413 3212.68 372.896C3211.23 370.336 3210.51 367.413 3210.51 364.128C3210.51 360.843 3211.23 357.941 3212.68 355.424C3214.13 352.907 3216.14 350.923 3218.7 349.472C3221.26 347.979 3224.2 347.232 3227.53 347.232C3230.86 347.232 3233.78 347.979 3236.3 349.472C3238.86 350.923 3240.86 352.907 3242.31 355.424C3243.81 357.941 3244.55 360.843 3244.55 364.128C3244.55 367.413 3243.81 370.336 3242.31 372.896C3240.86 375.413 3238.86 377.397 3236.3 378.848C3233.78 380.299 3230.86 381.024 3227.53 381.024ZM3227.53 375.904C3229.66 375.904 3231.54 375.413 3233.16 374.432C3234.78 373.451 3236.04 372.064 3236.94 370.272C3237.83 368.48 3238.28 366.432 3238.28 364.128C3238.28 361.824 3237.83 359.797 3236.94 358.048C3236.04 356.256 3234.78 354.869 3233.16 353.888C3231.54 352.864 3229.66 352.352 3227.53 352.352C3225.4 352.352 3223.5 352.864 3221.83 353.888C3220.21 354.869 3218.95 356.256 3218.06 358.048C3217.16 359.797 3216.71 361.824 3216.71 364.128C3216.71 366.432 3217.16 368.48 3218.06 370.272C3218.95 372.064 3220.21 373.451 3221.83 374.432C3223.5 375.413 3225.4 375.904 3227.53 375.904ZM3257.55 380H3251.6V333.92H3257.55V380ZM3271.93 380H3265.97V348.256H3271.93V380ZM3268.98 340.768C3267.87 340.768 3266.91 340.405 3266.1 339.68C3265.33 338.912 3264.95 337.973 3264.95 336.864C3264.95 335.755 3265.33 334.816 3266.1 334.048C3266.91 333.28 3267.87 332.896 3268.98 332.896C3270.09 332.896 3271.03 333.28 3271.8 334.048C3272.57 334.816 3272.95 335.755 3272.95 336.864C3272.95 337.973 3272.57 338.912 3271.8 339.68C3271.03 340.405 3270.09 340.768 3268.98 340.768ZM3305.18 370.976L3309.21 374.816C3307.68 376.736 3305.78 378.251 3303.52 379.36C3301.26 380.469 3298.7 381.024 3295.84 381.024C3292.59 381.024 3289.69 380.299 3287.13 378.848C3284.62 377.397 3282.63 375.413 3281.18 372.896C3279.73 370.336 3279.01 367.413 3279.01 364.128C3279.01 360.885 3279.73 358.005 3281.18 355.488C3282.63 352.928 3284.64 350.923 3287.2 349.472C3289.8 347.979 3292.72 347.232 3295.97 347.232C3298.78 347.232 3301.3 347.787 3303.52 348.896C3305.78 350.005 3307.68 351.52 3309.21 353.44L3305.18 357.28C3304.2 355.787 3302.96 354.592 3301.47 353.696C3299.98 352.8 3298.18 352.352 3296.09 352.352C3293.96 352.352 3292.06 352.864 3290.4 353.888C3288.78 354.869 3287.5 356.256 3286.56 358.048C3285.66 359.797 3285.21 361.824 3285.21 364.128C3285.21 366.432 3285.66 368.48 3286.56 370.272C3287.5 372.021 3288.78 373.408 3290.4 374.432C3292.06 375.413 3293.96 375.904 3296.09 375.904C3298.23 375.904 3300.02 375.456 3301.47 374.56C3302.96 373.664 3304.2 372.469 3305.18 370.976ZM3339.41 348.256H3345.49L3329.68 385.056C3328.7 387.403 3327.44 389.216 3325.91 390.496C3324.41 391.776 3322.26 392.416 3319.44 392.416H3315.99V387.424H3319.32C3320.64 387.424 3321.73 387.083 3322.58 386.4C3323.48 385.76 3324.2 384.8 3324.76 383.52L3326.1 380.128L3312.4 348.256H3318.74L3330.2 376.736H3327.89L3339.41 348.256ZM3401.73 380H3395.78V361.632C3395.78 358.56 3395.14 356.256 3393.86 354.72C3392.58 353.141 3390.83 352.352 3388.61 352.352C3387.03 352.352 3385.51 352.8 3384.06 353.696C3382.66 354.592 3381.5 356 3380.61 357.92C3379.75 359.797 3379.33 362.251 3379.33 365.28V380H3373.38V361.632C3373.38 358.56 3372.71 356.256 3371.39 354.72C3370.11 353.141 3368.38 352.352 3366.21 352.352C3364.59 352.352 3363.05 352.8 3361.6 353.696C3360.19 354.592 3359.04 356 3358.14 357.92C3357.29 359.797 3356.86 362.251 3356.86 365.28V380H3350.91V348.256H3356.8V356L3356.29 355.936C3356.88 353.76 3357.76 352.053 3358.91 350.816C3360.11 349.579 3361.45 348.683 3362.94 348.128C3364.48 347.531 3366.04 347.232 3367.62 347.232C3370.47 347.232 3372.82 348.021 3374.66 349.6C3376.53 351.179 3377.75 353.504 3378.3 356.576H3377.54C3378.13 354.315 3379.05 352.501 3380.29 351.136C3381.57 349.771 3383.02 348.789 3384.64 348.192C3386.3 347.552 3387.99 347.232 3389.7 347.232C3393.49 347.232 3396.44 348.427 3398.53 350.816C3400.66 353.163 3401.73 356.576 3401.73 361.056V380ZM3437.5 380H3431.93V373.728L3431.74 372.192V360.352C3431.74 357.835 3430.93 355.851 3429.31 354.4C3427.69 352.907 3425.49 352.16 3422.71 352.16C3420.71 352.16 3418.87 352.587 3417.21 353.44C3415.55 354.251 3414.1 355.381 3412.86 356.832L3409.15 352.992C3410.9 351.157 3412.9 349.749 3415.16 348.768C3417.47 347.744 3420.03 347.232 3422.84 347.232C3425.74 347.232 3428.28 347.765 3430.46 348.832C3432.68 349.899 3434.41 351.392 3435.64 353.312C3436.88 355.189 3437.5 357.472 3437.5 360.16V380ZM3420.22 381.024C3417.83 381.024 3415.72 380.597 3413.88 379.744C3412.05 378.848 3410.62 377.632 3409.59 376.096C3408.57 374.56 3408.06 372.811 3408.06 370.848C3408.06 368.629 3408.68 366.752 3409.91 365.216C3411.19 363.637 3412.94 362.443 3415.16 361.632C3417.38 360.779 3419.92 360.352 3422.78 360.352H3432.44V364.768H3423.42C3420.73 364.768 3418.51 365.259 3416.76 366.24C3415.06 367.179 3414.2 368.651 3414.2 370.656C3414.2 372.363 3414.84 373.728 3416.12 374.752C3417.45 375.776 3419.15 376.288 3421.24 376.288C3423.29 376.288 3425.15 375.883 3426.81 375.072C3428.47 374.261 3429.8 373.131 3430.78 371.68C3431.8 370.187 3432.38 368.48 3432.51 366.56L3434.62 367.712C3434.62 370.272 3434 372.555 3432.76 374.56C3431.53 376.565 3429.82 378.144 3427.64 379.296C3425.51 380.448 3423.03 381.024 3420.22 381.024ZM3451.43 380H3445.47V333.92H3451.43V380ZM3476.64 380H3468.39L3449.7 363.552H3450.34L3467.11 348.256H3474.79L3456.99 364.128V362.976L3476.64 380ZM3505.92 370.656L3509.63 374.496C3507.97 376.544 3505.92 378.144 3503.49 379.296C3501.1 380.448 3498.39 381.024 3495.36 381.024C3491.9 381.024 3488.83 380.299 3486.14 378.848C3483.46 377.397 3481.34 375.413 3479.81 372.896C3478.31 370.336 3477.57 367.413 3477.57 364.128C3477.57 360.843 3478.29 357.941 3479.74 355.424C3481.19 352.864 3483.2 350.859 3485.76 349.408C3488.32 347.957 3491.2 347.232 3494.4 347.232C3497.51 347.232 3500.27 347.957 3502.66 349.408C3505.09 350.816 3506.99 352.779 3508.35 355.296C3509.76 357.771 3510.46 360.651 3510.46 363.936V364.32H3504.45V363.744C3504.45 361.44 3504.02 359.435 3503.17 357.728C3502.31 355.979 3501.12 354.635 3499.58 353.696C3498.09 352.715 3496.36 352.224 3494.4 352.224C3492.31 352.224 3490.45 352.715 3488.83 353.696C3487.21 354.677 3485.95 356.064 3485.06 357.856C3484.16 359.605 3483.71 361.675 3483.71 364.064C3483.71 366.453 3484.2 368.565 3485.18 370.4C3486.21 372.192 3487.62 373.579 3489.41 374.56C3491.2 375.541 3493.25 376.032 3495.55 376.032C3499.78 376.032 3503.23 374.24 3505.92 370.656ZM3510.46 366.112H3481.98V361.696H3509.44L3510.46 363.936V366.112ZM3535.46 347.744V353.376H3534.05C3532.13 353.376 3530.36 353.845 3528.74 354.784C3527.16 355.68 3525.88 357.109 3524.9 359.072C3523.96 360.992 3523.49 363.509 3523.49 366.624V380H3517.54V348.256H3523.42V358.432H3522.53C3523 355.744 3523.85 353.632 3525.09 352.096C3526.37 350.56 3527.84 349.451 3529.5 348.768C3531.17 348.085 3532.88 347.744 3534.62 347.744H3535.46ZM3538.73 375.136L3542.5 371.296C3544 372.832 3545.7 374.048 3547.62 374.944C3549.54 375.797 3551.63 376.224 3553.89 376.224C3556.28 376.224 3558.23 375.755 3559.72 374.816C3561.21 373.835 3561.96 372.597 3561.96 371.104C3561.96 369.739 3561.32 368.693 3560.04 367.968C3558.76 367.2 3556.54 366.603 3553.38 366.176C3548.65 365.493 3545.25 364.448 3543.21 363.04C3541.2 361.589 3540.2 359.627 3540.2 357.152C3540.2 355.189 3540.77 353.461 3541.93 351.968C3543.08 350.475 3544.66 349.323 3546.66 348.512C3548.67 347.659 3550.97 347.232 3553.57 347.232C3556.48 347.232 3559.08 347.744 3561.38 348.768C3563.69 349.792 3565.69 351.221 3567.4 353.056L3563.69 356.896C3562.41 355.403 3560.91 354.229 3559.21 353.376C3557.54 352.48 3555.67 352.032 3553.57 352.032C3551.4 352.032 3549.61 352.48 3548.2 353.376C3546.83 354.272 3546.15 355.424 3546.15 356.832C3546.15 357.941 3546.75 358.816 3547.94 359.456C3549.18 360.053 3551.29 360.565 3554.28 360.992C3559.1 361.675 3562.56 362.784 3564.65 364.32C3566.78 365.856 3567.85 368.011 3567.85 370.784C3567.85 372.789 3567.25 374.581 3566.05 376.16C3564.86 377.696 3563.2 378.891 3561.06 379.744C3558.97 380.597 3556.54 381.024 3553.77 381.024C3550.65 381.024 3547.84 380.512 3545.32 379.488C3542.84 378.421 3540.65 376.971 3538.73 375.136ZM3625.17 360.8L3617.37 371.488C3614.64 374.987 3611.97 377.461 3609.37 378.912C3606.76 380.32 3603.86 381.024 3600.66 381.024C3597.63 381.024 3594.99 380.469 3592.73 379.36C3590.51 378.208 3588.78 376.672 3587.54 374.752C3586.35 372.789 3585.75 370.613 3585.75 368.224C3585.75 364.811 3586.92 361.888 3589.27 359.456C3591.66 356.981 3595.22 354.997 3599.96 353.504L3601.43 357.408C3598.19 358.603 3595.8 360.075 3594.26 361.824C3592.77 363.531 3592.02 365.493 3592.02 367.712C3592.02 370.059 3592.83 372.043 3594.45 373.664C3596.08 375.243 3598.25 376.032 3600.98 376.032C3602.39 376.032 3603.73 375.797 3605.01 375.328C3606.34 374.859 3607.66 374.048 3608.98 372.896C3610.35 371.744 3611.76 370.144 3613.21 368.096L3620.82 357.664L3625.17 360.8ZM3626.52 376.608L3622.68 380.576L3598.81 357.984L3597.85 357.152C3595.88 355.275 3594.35 353.632 3593.24 352.224C3592.13 350.773 3591.34 349.429 3590.87 348.192C3590.4 346.912 3590.17 345.568 3590.17 344.16C3590.17 342.197 3590.7 340.384 3591.77 338.72C3592.88 337.056 3594.35 335.733 3596.18 334.752C3598.06 333.728 3600.17 333.216 3602.52 333.216C3604.82 333.216 3606.91 333.728 3608.79 334.752C3610.67 335.733 3612.14 337.056 3613.21 338.72C3614.27 340.341 3614.81 342.176 3614.81 344.224C3614.81 346.315 3614.25 348.192 3613.14 349.856C3612.03 351.52 3610.52 352.971 3608.6 354.208C3606.68 355.445 3604.55 356.469 3602.2 357.28L3600.41 353.44C3603.05 352.544 3605.16 351.392 3606.74 349.984C3608.32 348.576 3609.11 346.784 3609.11 344.608C3609.11 342.731 3608.49 341.173 3607.25 339.936C3606.02 338.699 3604.44 338.08 3602.52 338.08C3600.73 338.08 3599.19 338.699 3597.91 339.936C3596.63 341.173 3595.99 342.709 3595.99 344.544C3595.99 345.568 3596.2 346.592 3596.63 347.616C3597.1 348.64 3597.83 349.707 3598.81 350.816C3599.79 351.925 3601.09 353.163 3602.71 354.528L3603.86 355.488L3626.52 376.608ZM3238.17 457.928C3238.17 461.171 3237.43 464.029 3235.93 466.504C3234.48 468.979 3232.48 470.92 3229.92 472.328C3227.36 473.736 3224.41 474.44 3221.08 474.44C3218.05 474.44 3215.3 473.907 3212.83 472.84C3210.35 471.816 3208.31 470.387 3206.68 468.552L3210.4 464.584C3211.59 466.077 3213.04 467.251 3214.75 468.104C3216.5 468.957 3218.57 469.384 3220.96 469.384C3223.22 469.384 3225.18 468.893 3226.84 467.912C3228.55 466.973 3229.87 465.651 3230.81 463.944C3231.75 462.28 3232.22 460.317 3232.22 458.056V445.832C3232.22 443.101 3231.71 440.819 3230.68 438.984C3229.66 437.149 3228.32 435.763 3226.65 434.824C3225.03 433.843 3223.26 433.352 3221.34 433.352C3219.25 433.352 3217.37 433.864 3215.71 434.888C3214.09 435.912 3212.83 437.299 3211.93 439.048C3211.04 440.755 3210.59 442.696 3210.59 444.872C3210.59 447.091 3211.04 449.053 3211.93 450.76C3212.87 452.467 3214.15 453.811 3215.77 454.792C3217.44 455.731 3219.38 456.2 3221.6 456.2C3223.56 456.2 3225.35 455.795 3226.97 454.984C3228.59 454.173 3229.92 453.064 3230.94 451.656C3232.01 450.205 3232.63 448.563 3232.8 446.728L3234.01 447.944C3234.31 450.504 3233.88 452.787 3232.73 454.792C3231.62 456.797 3230 458.397 3227.87 459.592C3225.78 460.744 3223.35 461.32 3220.57 461.32C3217.5 461.32 3214.73 460.637 3212.25 459.272C3209.82 457.864 3207.9 455.923 3206.49 453.448C3205.08 450.931 3204.38 448.072 3204.38 444.872C3204.38 441.629 3205.08 438.771 3206.49 436.296C3207.94 433.779 3209.86 431.816 3212.25 430.408C3214.68 428.957 3217.39 428.232 3220.38 428.232C3222.56 428.232 3224.56 428.637 3226.4 429.448C3228.27 430.259 3229.85 431.475 3231.13 433.096C3232.41 434.675 3233.24 436.637 3233.63 438.984H3232.28V429.256H3238.17V457.928ZM3273.61 451.656L3277.32 455.496C3275.66 457.544 3273.61 459.144 3271.18 460.296C3268.79 461.448 3266.08 462.024 3263.05 462.024C3259.59 462.024 3256.52 461.299 3253.83 459.848C3251.14 458.397 3249.03 456.413 3247.5 453.896C3246 451.336 3245.26 448.413 3245.26 445.128C3245.26 441.843 3245.98 438.941 3247.43 436.424C3248.88 433.864 3250.89 431.859 3253.45 430.408C3256.01 428.957 3258.89 428.232 3262.09 428.232C3265.2 428.232 3267.95 428.957 3270.34 430.408C3272.78 431.816 3274.67 433.779 3276.04 436.296C3277.45 438.771 3278.15 441.651 3278.15 444.936V445.32H3272.14V444.744C3272.14 442.44 3271.71 440.435 3270.86 438.728C3270 436.979 3268.81 435.635 3267.27 434.696C3265.78 433.715 3264.05 433.224 3262.09 433.224C3260 433.224 3258.14 433.715 3256.52 434.696C3254.9 435.677 3253.64 437.064 3252.74 438.856C3251.85 440.605 3251.4 442.675 3251.4 445.064C3251.4 447.453 3251.89 449.565 3252.87 451.4C3253.9 453.192 3255.3 454.579 3257.1 455.56C3258.89 456.541 3260.94 457.032 3263.24 457.032C3267.46 457.032 3270.92 455.24 3273.61 451.656ZM3278.15 447.112H3249.67V442.696H3277.13L3278.15 444.936V447.112ZM3314.92 461H3308.97V442.696C3308.97 439.581 3308.26 437.256 3306.86 435.72C3305.45 434.141 3303.55 433.352 3301.16 433.352C3299.45 433.352 3297.83 433.8 3296.3 434.696C3294.76 435.592 3293.52 437 3292.58 438.92C3291.65 440.84 3291.18 443.315 3291.18 446.344V461H3285.22V429.256H3291.11V438.984H3290.22C3290.69 436.296 3291.54 434.184 3292.78 432.648C3294.01 431.069 3295.49 429.939 3297.19 429.256C3298.9 428.573 3300.67 428.232 3302.5 428.232C3306.34 428.232 3309.37 429.427 3311.59 431.816C3313.81 434.163 3314.92 437.576 3314.92 442.056V461ZM3349.92 451.656L3353.63 455.496C3351.97 457.544 3349.92 459.144 3347.49 460.296C3345.1 461.448 3342.39 462.024 3339.36 462.024C3335.9 462.024 3332.83 461.299 3330.14 459.848C3327.46 458.397 3325.34 456.413 3323.81 453.896C3322.31 451.336 3321.57 448.413 3321.57 445.128C3321.57 441.843 3322.29 438.941 3323.74 436.424C3325.19 433.864 3327.2 431.859 3329.76 430.408C3332.32 428.957 3335.2 428.232 3338.4 428.232C3341.51 428.232 3344.27 428.957 3346.66 430.408C3349.09 431.816 3350.99 433.779 3352.35 436.296C3353.76 438.771 3354.46 441.651 3354.46 444.936V445.32H3348.45V444.744C3348.45 442.44 3348.02 440.435 3347.17 438.728C3346.31 436.979 3345.12 435.635 3343.58 434.696C3342.09 433.715 3340.36 433.224 3338.4 433.224C3336.31 433.224 3334.45 433.715 3332.83 434.696C3331.21 435.677 3329.95 437.064 3329.06 438.856C3328.16 440.605 3327.71 442.675 3327.71 445.064C3327.71 447.453 3328.2 449.565 3329.18 451.4C3330.21 453.192 3331.62 454.579 3333.41 455.56C3335.2 456.541 3337.25 457.032 3339.55 457.032C3343.78 457.032 3347.23 455.24 3349.92 451.656ZM3354.46 447.112H3325.98V442.696H3353.44L3354.46 444.936V447.112ZM3379.46 428.744V434.376H3378.05C3376.13 434.376 3374.36 434.845 3372.74 435.784C3371.16 436.68 3369.88 438.109 3368.9 440.072C3367.96 441.992 3367.49 444.509 3367.49 447.624V461H3361.54V429.256H3367.42V439.432H3366.53C3367 436.744 3367.85 434.632 3369.09 433.096C3370.37 431.56 3371.84 430.451 3373.5 429.768C3375.17 429.085 3376.88 428.744 3378.62 428.744H3379.46ZM3413 461H3407.43V454.728L3407.24 453.192V441.352C3407.24 438.835 3406.43 436.851 3404.81 435.4C3403.19 433.907 3400.99 433.16 3398.21 433.16C3396.21 433.16 3394.37 433.587 3392.71 434.44C3391.05 435.251 3389.6 436.381 3388.36 437.832L3384.65 433.992C3386.4 432.157 3388.4 430.749 3390.66 429.768C3392.97 428.744 3395.53 428.232 3398.34 428.232C3401.24 428.232 3403.78 428.765 3405.96 429.832C3408.18 430.899 3409.91 432.392 3411.14 434.312C3412.38 436.189 3413 438.472 3413 441.16V461ZM3395.72 462.024C3393.33 462.024 3391.22 461.597 3389.38 460.744C3387.55 459.848 3386.12 458.632 3385.09 457.096C3384.07 455.56 3383.56 453.811 3383.56 451.848C3383.56 449.629 3384.18 447.752 3385.41 446.216C3386.69 444.637 3388.44 443.443 3390.66 442.632C3392.88 441.779 3395.42 441.352 3398.28 441.352H3407.94V445.768H3398.92C3396.23 445.768 3394.01 446.259 3392.26 447.24C3390.56 448.179 3389.7 449.651 3389.7 451.656C3389.7 453.363 3390.34 454.728 3391.62 455.752C3392.95 456.776 3394.65 457.288 3396.74 457.288C3398.79 457.288 3400.65 456.883 3402.31 456.072C3403.97 455.261 3405.3 454.131 3406.28 452.68C3407.3 451.187 3407.88 449.48 3408.01 447.56L3410.12 448.712C3410.12 451.272 3409.5 453.555 3408.26 455.56C3407.03 457.565 3405.32 459.144 3403.14 460.296C3401.01 461.448 3398.53 462.024 3395.72 462.024ZM3426.93 461H3420.97V414.92H3426.93V461ZM3453.8 473.416H3447.85V429.256H3453.74V438.984H3452.39C3452.73 436.893 3453.52 435.037 3454.76 433.416C3456.04 431.795 3457.62 430.536 3459.5 429.64C3461.42 428.701 3463.51 428.232 3465.77 428.232C3468.84 428.232 3471.57 428.979 3473.96 430.472C3476.35 431.923 3478.23 433.928 3479.59 436.488C3480.96 439.005 3481.64 441.885 3481.64 445.128C3481.64 448.413 3480.94 451.336 3479.53 453.896C3478.16 456.413 3476.24 458.397 3473.77 459.848C3471.34 461.299 3468.56 462.024 3465.45 462.024C3462.59 462.024 3460.12 461.448 3458.03 460.296C3455.93 459.101 3454.36 457.501 3453.29 455.496C3452.22 453.448 3451.8 451.165 3452.01 448.648L3453.23 447.432C3453.4 449.267 3453.99 450.909 3455.02 452.36C3456.08 453.811 3457.43 454.941 3459.05 455.752C3460.71 456.52 3462.51 456.904 3464.43 456.904C3466.64 456.904 3468.56 456.413 3470.19 455.432C3471.81 454.408 3473.09 453 3474.03 451.208C3474.96 449.416 3475.43 447.389 3475.43 445.128C3475.43 442.867 3474.99 440.861 3474.09 439.112C3473.19 437.32 3471.96 435.912 3470.38 434.888C3468.8 433.864 3466.94 433.352 3464.81 433.352C3462.68 433.352 3460.78 433.885 3459.11 434.952C3457.49 435.976 3456.19 437.427 3455.21 439.304C3454.27 441.181 3453.8 443.357 3453.8 445.832V473.416ZM3517.84 461H3511.96V454.856L3511.89 453.064V429.256H3517.84V461ZM3512.47 447.432L3513.68 448.712C3513.85 451.315 3513.39 453.619 3512.28 455.624C3511.21 457.587 3509.67 459.144 3507.67 460.296C3505.71 461.448 3503.42 462.024 3500.82 462.024C3497.02 462.024 3493.99 460.893 3491.73 458.632C3489.47 456.371 3488.34 453.107 3488.34 448.84V429.256H3494.29V448.2C3494.29 451.059 3494.97 453.235 3496.34 454.728C3497.75 456.179 3499.69 456.904 3502.16 456.904C3503.91 456.904 3505.53 456.52 3507.03 455.752C3508.52 454.941 3509.76 453.832 3510.74 452.424C3511.72 450.973 3512.3 449.309 3512.47 447.432ZM3532.17 461H3526.29V414.92H3532.24V438.984H3530.77C3531.11 436.893 3531.9 435.037 3533.13 433.416C3534.41 431.795 3535.99 430.536 3537.87 429.64C3539.79 428.701 3541.9 428.232 3544.21 428.232C3547.28 428.232 3550.01 428.979 3552.4 430.472C3554.79 431.923 3556.67 433.928 3558.03 436.488C3559.4 439.005 3560.08 441.885 3560.08 445.128C3560.08 448.413 3559.37 451.336 3557.97 453.896C3556.6 456.413 3554.68 458.397 3552.21 459.848C3549.77 461.299 3547 462.024 3543.89 462.024C3541.03 462.024 3538.55 461.448 3536.46 460.296C3534.37 459.101 3532.79 457.501 3531.73 455.496C3530.66 453.448 3530.23 451.165 3530.45 448.648L3531.66 447.432C3531.83 449.267 3532.43 450.909 3533.45 452.36C3534.52 453.811 3535.87 454.941 3537.49 455.752C3539.15 456.52 3540.94 456.904 3542.86 456.904C3545.08 456.904 3547 456.413 3548.62 455.432C3550.24 454.408 3551.52 453 3552.46 451.208C3553.4 449.416 3553.87 447.389 3553.87 445.128C3553.87 442.867 3553.42 440.861 3552.53 439.112C3551.67 437.32 3550.44 435.912 3548.81 434.888C3547.24 433.864 3545.38 433.352 3543.25 433.352C3541.11 433.352 3539.21 433.885 3537.55 434.952C3535.93 435.976 3534.63 437.427 3533.65 439.304C3532.71 441.181 3532.24 443.357 3532.24 445.832V452.552L3532.17 452.744V461ZM3573.11 461H3567.16V414.92H3573.11V461ZM3587.49 461H3581.54V429.256H3587.49V461ZM3584.54 421.768C3583.44 421.768 3582.48 421.405 3581.66 420.68C3580.9 419.912 3580.51 418.973 3580.51 417.864C3580.51 416.755 3580.9 415.816 3581.66 415.048C3582.48 414.28 3583.44 413.896 3584.54 413.896C3585.65 413.896 3586.59 414.28 3587.36 415.048C3588.13 415.816 3588.51 416.755 3588.51 417.864C3588.51 418.973 3588.13 419.912 3587.36 420.68C3586.59 421.405 3585.65 421.768 3584.54 421.768ZM3620.74 451.976L3624.78 455.816C3623.24 457.736 3621.34 459.251 3619.08 460.36C3616.82 461.469 3614.26 462.024 3611.4 462.024C3608.16 462.024 3605.26 461.299 3602.7 459.848C3600.18 458.397 3598.19 456.413 3596.74 453.896C3595.29 451.336 3594.57 448.413 3594.57 445.128C3594.57 441.885 3595.29 439.005 3596.74 436.488C3598.19 433.928 3600.2 431.923 3602.76 430.472C3605.36 428.979 3608.28 428.232 3611.53 428.232C3614.34 428.232 3616.86 428.787 3619.08 429.896C3621.34 431.005 3623.24 432.52 3624.78 434.44L3620.74 438.28C3619.76 436.787 3618.52 435.592 3617.03 434.696C3615.54 433.8 3613.75 433.352 3611.66 433.352C3609.52 433.352 3607.62 433.864 3605.96 434.888C3604.34 435.869 3603.06 437.256 3602.12 439.048C3601.22 440.797 3600.78 442.824 3600.78 445.128C3600.78 447.432 3601.22 449.48 3602.12 451.272C3603.06 453.021 3604.34 454.408 3605.96 455.432C3607.62 456.413 3609.52 456.904 3611.66 456.904C3613.79 456.904 3615.58 456.456 3617.03 455.56C3618.52 454.664 3619.76 453.469 3620.74 451.976Z" fill="#F5F5F5"/>
<circle cx="50" cy="896" r="50" fill="#D7E5BE" fill-opacity="0.5"/>
<path d="M162.264 880H156.12V834.24H162.264V880ZM201.358 880H195.406V861.696C195.406 858.581 194.702 856.256 193.294 854.72C191.886 853.141 189.987 852.352 187.598 852.352C185.891 852.352 184.27 852.8 182.734 853.696C181.198 854.592 179.96 856 179.022 857.92C178.083 859.84 177.614 862.315 177.614 865.344V880H171.661V848.256H177.55V857.984H176.654C177.123 855.296 177.976 853.184 179.214 851.648C180.451 850.069 181.923 848.939 183.63 848.256C185.336 847.573 187.107 847.232 188.942 847.232C192.782 847.232 195.811 848.427 198.03 850.816C200.248 853.163 201.358 856.576 201.358 861.056V880ZM224.422 880H218.598L204.966 848.256H211.302L222.63 876.416H220.582L231.974 848.256H238.054L224.422 880ZM257.654 881.024C254.326 881.024 251.382 880.299 248.822 878.848C246.262 877.397 244.257 875.413 242.806 872.896C241.355 870.336 240.63 867.413 240.63 864.128C240.63 860.843 241.355 857.941 242.806 855.424C244.257 852.907 246.262 850.923 248.822 849.472C251.382 847.979 254.326 847.232 257.654 847.232C260.982 847.232 263.905 847.979 266.422 849.472C268.982 850.923 270.987 852.907 272.438 855.424C273.931 857.941 274.678 860.843 274.678 864.128C274.678 867.413 273.931 870.336 272.438 872.896C270.987 875.413 268.982 877.397 266.422 878.848C263.905 880.299 260.982 881.024 257.654 881.024ZM257.654 875.904C259.787 875.904 261.665 875.413 263.286 874.432C264.907 873.451 266.166 872.064 267.062 870.272C267.958 868.48 268.406 866.432 268.406 864.128C268.406 861.824 267.958 859.797 267.062 858.048C266.166 856.256 264.907 854.869 263.286 853.888C261.665 852.864 259.787 852.352 257.654 852.352C255.521 852.352 253.622 852.864 251.958 853.888C250.337 854.869 249.078 856.256 248.182 858.048C247.286 859.797 246.838 861.824 246.838 864.128C246.838 866.432 247.286 868.48 248.182 870.272C249.078 872.064 250.337 873.451 251.958 874.432C253.622 875.413 255.521 875.904 257.654 875.904ZM287.676 880H281.724V833.92H287.676V880ZM312.547 880H306.723L293.091 848.256H299.427L310.755 876.416H308.707L320.099 848.256H326.179L312.547 880ZM357.107 870.656L360.819 874.496C359.155 876.544 357.107 878.144 354.675 879.296C352.286 880.448 349.576 881.024 346.547 881.024C343.091 881.024 340.019 880.299 337.331 878.848C334.643 877.397 332.531 875.413 330.995 872.896C329.502 870.336 328.755 867.413 328.755 864.128C328.755 860.843 329.48 857.941 330.931 855.424C332.382 852.864 334.387 850.859 336.947 849.408C339.507 847.957 342.387 847.232 345.587 847.232C348.702 847.232 351.454 847.957 353.843 849.408C356.275 850.816 358.174 852.779 359.539 855.296C360.947 857.771 361.651 860.651 361.651 863.936V864.32H355.635V863.744C355.635 861.44 355.208 859.435 354.355 857.728C353.502 855.979 352.307 854.635 350.771 853.696C349.278 852.715 347.55 852.224 345.587 852.224C343.496 852.224 341.64 852.715 340.019 853.696C338.398 854.677 337.139 856.064 336.243 857.856C335.347 859.605 334.899 861.675 334.899 864.064C334.899 866.453 335.39 868.565 336.371 870.4C337.395 872.192 338.803 873.579 340.595 874.56C342.387 875.541 344.435 876.032 346.739 876.032C350.963 876.032 354.419 874.24 357.107 870.656ZM361.651 866.112H333.171V861.696H360.627L361.651 863.936V866.112ZM419.54 880H413.588V861.632C413.588 858.56 412.948 856.256 411.668 854.72C410.388 853.141 408.639 852.352 406.42 852.352C404.841 852.352 403.327 852.8 401.876 853.696C400.468 854.592 399.316 856 398.42 857.92C397.567 859.797 397.14 862.251 397.14 865.28V880H391.188V861.632C391.188 858.56 390.527 856.256 389.204 854.72C387.924 853.141 386.196 852.352 384.02 852.352C382.399 852.352 380.863 852.8 379.412 853.696C378.004 854.592 376.852 856 375.956 857.92C375.103 859.797 374.676 862.251 374.676 865.28V880H368.724V848.256H374.612V856L374.1 855.936C374.697 853.76 375.572 852.053 376.724 850.816C377.919 849.579 379.263 848.683 380.756 848.128C382.292 847.531 383.849 847.232 385.428 847.232C388.287 847.232 390.633 848.021 392.468 849.6C394.345 851.179 395.561 853.504 396.116 856.576H395.348C395.945 854.315 396.863 852.501 398.1 851.136C399.38 849.771 400.831 848.789 402.452 848.192C404.116 847.552 405.801 847.232 407.508 847.232C411.305 847.232 414.249 848.427 416.34 850.816C418.473 853.163 419.54 856.576 419.54 861.056V880ZM454.607 870.656L458.319 874.496C456.655 876.544 454.607 878.144 452.175 879.296C449.786 880.448 447.076 881.024 444.047 881.024C440.591 881.024 437.519 880.299 434.831 878.848C432.143 877.397 430.031 875.413 428.495 872.896C427.002 870.336 426.255 867.413 426.255 864.128C426.255 860.843 426.98 857.941 428.431 855.424C429.882 852.864 431.887 850.859 434.447 849.408C437.007 847.957 439.887 847.232 443.087 847.232C446.202 847.232 448.954 847.957 451.343 849.408C453.775 850.816 455.674 852.779 457.039 855.296C458.447 857.771 459.151 860.651 459.151 863.936V864.32H453.135V863.744C453.135 861.44 452.708 859.435 451.855 857.728C451.002 855.979 449.807 854.635 448.271 853.696C446.778 852.715 445.05 852.224 443.087 852.224C440.996 852.224 439.14 852.715 437.519 853.696C435.898 854.677 434.639 856.064 433.743 857.856C432.847 859.605 432.399 861.675 432.399 864.064C432.399 866.453 432.89 868.565 433.871 870.4C434.895 872.192 436.303 873.579 438.095 874.56C439.887 875.541 441.935 876.032 444.239 876.032C448.463 876.032 451.919 874.24 454.607 870.656ZM459.151 866.112H430.671V861.696H458.127L459.151 863.936V866.112ZM495.92 880H489.968V861.696C489.968 858.581 489.264 856.256 487.856 854.72C486.448 853.141 484.549 852.352 482.16 852.352C480.453 852.352 478.832 852.8 477.296 853.696C475.76 854.592 474.523 856 473.584 857.92C472.645 859.84 472.176 862.315 472.176 865.344V880H466.224V848.256H472.112V857.984H471.216C471.685 855.296 472.539 853.184 473.776 851.648C475.013 850.069 476.485 848.939 478.192 848.256C479.899 847.573 481.669 847.232 483.504 847.232C487.344 847.232 490.373 848.427 492.592 850.816C494.811 853.163 495.92 856.576 495.92 861.056V880ZM522.862 880H515.246C512.771 880 510.872 879.36 509.55 878.08C508.27 876.757 507.63 874.88 507.63 872.448V839.296H513.582V871.68C513.582 872.747 513.859 873.579 514.414 874.176C514.968 874.731 515.779 875.008 516.846 875.008H522.862V880ZM522.414 853.248H501.422V848.256H522.414V853.248ZM547.801 880H541.849V848.256H547.801V880ZM544.857 840.768C543.748 840.768 542.788 840.405 541.977 839.68C541.209 838.912 540.825 837.973 540.825 836.864C540.825 835.755 541.209 834.816 541.977 834.048C542.788 833.28 543.748 832.896 544.857 832.896C545.966 832.896 546.905 833.28 547.673 834.048C548.441 834.816 548.825 835.755 548.825 836.864C548.825 837.973 548.441 838.912 547.673 839.68C546.905 840.405 545.966 840.768 544.857 840.768ZM585.92 880H579.968V861.696C579.968 858.581 579.264 856.256 577.856 854.72C576.448 853.141 574.549 852.352 572.16 852.352C570.453 852.352 568.832 852.8 567.296 853.696C565.76 854.592 564.523 856 563.584 857.92C562.645 859.84 562.176 862.315 562.176 865.344V880H556.224V848.256H562.112V857.984H561.216C561.685 855.296 562.539 853.184 563.776 851.648C565.013 850.069 566.485 848.939 568.192 848.256C569.899 847.573 571.669 847.232 573.504 847.232C577.344 847.232 580.373 848.427 582.592 850.816C584.811 853.163 585.92 856.576 585.92 861.056V880ZM182.232 956.776H177.624L159.384 918.696L162.008 918.632V961H156.056V915.24H163.672L181.592 952.872H178.392L196.376 915.24H203.8V961H197.848V918.632L200.472 918.696L182.232 956.776ZM228.904 962.024C225.576 962.024 222.632 961.299 220.072 959.848C217.512 958.397 215.507 956.413 214.056 953.896C212.605 951.336 211.88 948.413 211.88 945.128C211.88 941.843 212.605 938.941 214.056 936.424C215.507 933.907 217.512 931.923 220.072 930.472C222.632 928.979 225.576 928.232 228.904 928.232C232.232 928.232 235.155 928.979 237.672 930.472C240.232 931.923 242.237 933.907 243.688 936.424C245.181 938.941 245.928 941.843 245.928 945.128C245.928 948.413 245.181 951.336 243.688 953.896C242.237 956.413 240.232 958.397 237.672 959.848C235.155 961.299 232.232 962.024 228.904 962.024ZM228.904 956.904C231.037 956.904 232.915 956.413 234.536 955.432C236.157 954.451 237.416 953.064 238.312 951.272C239.208 949.48 239.656 947.432 239.656 945.128C239.656 942.824 239.208 940.797 238.312 939.048C237.416 937.256 236.157 935.869 234.536 934.888C232.915 933.864 231.037 933.352 228.904 933.352C226.771 933.352 224.872 933.864 223.208 934.888C221.587 935.869 220.328 937.256 219.432 939.048C218.536 940.797 218.088 942.824 218.088 945.128C218.088 947.432 218.536 949.48 219.432 951.272C220.328 953.064 221.587 954.451 223.208 955.432C224.872 956.413 226.771 956.904 228.904 956.904ZM285.422 961H279.534V952.744L279.47 952.552V945.832C279.47 943.357 279.001 941.181 278.062 939.304C277.166 937.427 275.886 935.976 274.222 934.952C272.601 933.885 270.723 933.352 268.59 933.352C266.457 933.352 264.579 933.864 262.958 934.888C261.337 935.912 260.078 937.32 259.182 939.112C258.286 940.861 257.838 942.867 257.838 945.128C257.838 947.389 258.307 949.416 259.246 951.208C260.185 953 261.465 954.408 263.086 955.432C264.75 956.413 266.67 956.904 268.846 956.904C270.809 956.904 272.601 956.52 274.222 955.752C275.843 954.941 277.166 953.811 278.19 952.36C279.257 950.909 279.875 949.267 280.046 947.432L281.262 948.648C281.518 951.165 281.091 953.448 279.982 955.496C278.915 957.501 277.337 959.101 275.246 960.296C273.155 961.448 270.681 962.024 267.822 962.024C264.707 962.024 261.913 961.299 259.438 959.848C257.006 958.397 255.086 956.413 253.678 953.896C252.313 951.336 251.63 948.413 251.63 945.128C251.63 941.885 252.313 939.005 253.678 936.488C255.086 933.928 257.006 931.923 259.438 930.472C261.87 928.979 264.601 928.232 267.63 928.232C269.977 928.232 272.089 928.68 273.966 929.576C275.843 930.472 277.401 931.731 278.638 933.352C279.875 934.973 280.643 936.851 280.942 938.984H279.47V914.92H285.422V961ZM320.857 951.656L324.569 955.496C322.905 957.544 320.857 959.144 318.425 960.296C316.036 961.448 313.326 962.024 310.297 962.024C306.841 962.024 303.769 961.299 301.081 959.848C298.393 958.397 296.281 956.413 294.745 953.896C293.252 951.336 292.505 948.413 292.505 945.128C292.505 941.843 293.23 938.941 294.681 936.424C296.132 933.864 298.137 931.859 300.697 930.408C303.257 928.957 306.137 928.232 309.337 928.232C312.452 928.232 315.204 928.957 317.593 930.408C320.025 931.816 321.924 933.779 323.289 936.296C324.697 938.771 325.401 941.651 325.401 944.936V945.32H319.385V944.744C319.385 942.44 318.958 940.435 318.105 938.728C317.252 936.979 316.057 935.635 314.521 934.696C313.028 933.715 311.3 933.224 309.337 933.224C307.246 933.224 305.39 933.715 303.769 934.696C302.148 935.677 300.889 937.064 299.993 938.856C299.097 940.605 298.649 942.675 298.649 945.064C298.649 947.453 299.14 949.565 300.121 951.4C301.145 953.192 302.553 954.579 304.345 955.56C306.137 956.541 308.185 957.032 310.489 957.032C314.713 957.032 318.169 955.24 320.857 951.656ZM325.401 947.112H296.921V942.696H324.377L325.401 944.936V947.112ZM338.426 961H332.474V914.92H338.426V961ZM344.289 956.136L348.065 952.296C349.558 953.832 351.265 955.048 353.185 955.944C355.105 956.797 357.196 957.224 359.457 957.224C361.846 957.224 363.788 956.755 365.281 955.816C366.774 954.835 367.521 953.597 367.521 952.104C367.521 950.739 366.881 949.693 365.601 948.968C364.321 948.2 362.102 947.603 358.945 947.176C354.209 946.493 350.817 945.448 348.769 944.04C346.764 942.589 345.761 940.627 345.761 938.152C345.761 936.189 346.337 934.461 347.489 932.968C348.641 931.475 350.22 930.323 352.225 929.512C354.23 928.659 356.534 928.232 359.137 928.232C362.038 928.232 364.641 928.744 366.945 929.768C369.249 930.792 371.254 932.221 372.961 934.056L369.249 937.896C367.969 936.403 366.476 935.229 364.769 934.376C363.105 933.48 361.228 933.032 359.137 933.032C356.961 933.032 355.169 933.48 353.761 934.376C352.396 935.272 351.713 936.424 351.713 937.832C351.713 938.941 352.31 939.816 353.505 940.456C354.742 941.053 356.854 941.565 359.841 941.992C364.662 942.675 368.118 943.784 370.209 945.32C372.342 946.856 373.409 949.011 373.409 951.784C373.409 953.789 372.812 955.581 371.617 957.16C370.422 958.696 368.758 959.891 366.625 960.744C364.534 961.597 362.102 962.024 359.329 962.024C356.214 962.024 353.398 961.512 350.881 960.488C348.406 959.421 346.209 957.971 344.289 956.136Z" fill="#F5F5F5"/>
<circle cx="3257" cy="896" r="50" fill="#E31937" fill-opacity="0.5"/>
<path d="M3369.26 880H3363.12V834.24H3369.26V880ZM3408.36 880H3402.41V861.696C3402.41 858.581 3401.7 856.256 3400.29 854.72C3398.89 853.141 3396.99 852.352 3394.6 852.352C3392.89 852.352 3391.27 852.8 3389.73 853.696C3388.2 854.592 3386.96 856 3386.02 857.92C3385.08 859.84 3384.61 862.315 3384.61 865.344V880H3378.66V848.256H3384.55V857.984H3383.65C3384.12 855.296 3384.98 853.184 3386.21 851.648C3387.45 850.069 3388.92 848.939 3390.63 848.256C3392.34 847.573 3394.11 847.232 3395.94 847.232C3399.78 847.232 3402.81 848.427 3405.03 850.816C3407.25 853.163 3408.36 856.576 3408.36 861.056V880ZM3431.42 880H3425.6L3411.97 848.256H3418.3L3429.63 876.416H3427.58L3438.97 848.256H3445.05L3431.42 880ZM3464.65 881.024C3461.33 881.024 3458.38 880.299 3455.82 878.848C3453.26 877.397 3451.26 875.413 3449.81 872.896C3448.36 870.336 3447.63 867.413 3447.63 864.128C3447.63 860.843 3448.36 857.941 3449.81 855.424C3451.26 852.907 3453.26 850.923 3455.82 849.472C3458.38 847.979 3461.33 847.232 3464.65 847.232C3467.98 847.232 3470.9 847.979 3473.42 849.472C3475.98 850.923 3477.99 852.907 3479.44 855.424C3480.93 857.941 3481.68 860.843 3481.68 864.128C3481.68 867.413 3480.93 870.336 3479.44 872.896C3477.99 875.413 3475.98 877.397 3473.42 878.848C3470.9 880.299 3467.98 881.024 3464.65 881.024ZM3464.65 875.904C3466.79 875.904 3468.66 875.413 3470.29 874.432C3471.91 873.451 3473.17 872.064 3474.06 870.272C3474.96 868.48 3475.41 866.432 3475.41 864.128C3475.41 861.824 3474.96 859.797 3474.06 858.048C3473.17 856.256 3471.91 854.869 3470.29 853.888C3468.66 852.864 3466.79 852.352 3464.65 852.352C3462.52 852.352 3460.62 852.864 3458.96 853.888C3457.34 854.869 3456.08 856.256 3455.18 858.048C3454.29 859.797 3453.84 861.824 3453.84 864.128C3453.84 866.432 3454.29 868.48 3455.18 870.272C3456.08 872.064 3457.34 873.451 3458.96 874.432C3460.62 875.413 3462.52 875.904 3464.65 875.904ZM3494.68 880H3488.72V833.92H3494.68V880ZM3519.55 880H3513.72L3500.09 848.256H3506.43L3517.76 876.416H3515.71L3527.1 848.256H3533.18L3519.55 880ZM3564.11 870.656L3567.82 874.496C3566.16 876.544 3564.11 878.144 3561.68 879.296C3559.29 880.448 3556.58 881.024 3553.55 881.024C3550.09 881.024 3547.02 880.299 3544.33 878.848C3541.64 877.397 3539.53 875.413 3538 872.896C3536.5 870.336 3535.76 867.413 3535.76 864.128C3535.76 860.843 3536.48 857.941 3537.93 855.424C3539.38 852.864 3541.39 850.859 3543.95 849.408C3546.51 847.957 3549.39 847.232 3552.59 847.232C3555.7 847.232 3558.45 847.957 3560.84 849.408C3563.28 850.816 3565.17 852.779 3566.54 855.296C3567.95 857.771 3568.65 860.651 3568.65 863.936V864.32H3562.64V863.744C3562.64 861.44 3562.21 859.435 3561.36 857.728C3560.5 855.979 3559.31 854.635 3557.77 853.696C3556.28 852.715 3554.55 852.224 3552.59 852.224C3550.5 852.224 3548.64 852.715 3547.02 853.696C3545.4 854.677 3544.14 856.064 3543.24 857.856C3542.35 859.605 3541.9 861.675 3541.9 864.064C3541.9 866.453 3542.39 868.565 3543.37 870.4C3544.4 872.192 3545.8 873.579 3547.6 874.56C3549.39 875.541 3551.44 876.032 3553.74 876.032C3557.96 876.032 3561.42 874.24 3564.11 870.656ZM3568.65 866.112H3540.17V861.696H3567.63L3568.65 863.936V866.112ZM3626.54 880H3620.59V861.632C3620.59 858.56 3619.95 856.256 3618.67 854.72C3617.39 853.141 3615.64 852.352 3613.42 852.352C3611.84 852.352 3610.33 852.8 3608.88 853.696C3607.47 854.592 3606.32 856 3605.42 857.92C3604.57 859.797 3604.14 862.251 3604.14 865.28V880H3598.19V861.632C3598.19 858.56 3597.53 856.256 3596.2 854.72C3594.92 853.141 3593.2 852.352 3591.02 852.352C3589.4 852.352 3587.86 852.8 3586.41 853.696C3585 854.592 3583.85 856 3582.96 857.92C3582.1 859.797 3581.68 862.251 3581.68 865.28V880H3575.72V848.256H3581.61V856L3581.1 855.936C3581.7 853.76 3582.57 852.053 3583.72 850.816C3584.92 849.579 3586.26 848.683 3587.76 848.128C3589.29 847.531 3590.85 847.232 3592.43 847.232C3595.29 847.232 3597.63 848.021 3599.47 849.6C3601.35 851.179 3602.56 853.504 3603.12 856.576H3602.35C3602.95 854.315 3603.86 852.501 3605.1 851.136C3606.38 849.771 3607.83 848.789 3609.45 848.192C3611.12 847.552 3612.8 847.232 3614.51 847.232C3618.31 847.232 3621.25 848.427 3623.34 850.816C3625.47 853.163 3626.54 856.576 3626.54 861.056V880ZM3661.61 870.656L3665.32 874.496C3663.66 876.544 3661.61 878.144 3659.18 879.296C3656.79 880.448 3654.08 881.024 3651.05 881.024C3647.59 881.024 3644.52 880.299 3641.83 878.848C3639.14 877.397 3637.03 875.413 3635.5 872.896C3634 870.336 3633.26 867.413 3633.26 864.128C3633.26 860.843 3633.98 857.941 3635.43 855.424C3636.88 852.864 3638.89 850.859 3641.45 849.408C3644.01 847.957 3646.89 847.232 3650.09 847.232C3653.2 847.232 3655.95 847.957 3658.34 849.408C3660.78 850.816 3662.67 852.779 3664.04 855.296C3665.45 857.771 3666.15 860.651 3666.15 863.936V864.32H3660.14V863.744C3660.14 861.44 3659.71 859.435 3658.86 857.728C3658 855.979 3656.81 854.635 3655.27 853.696C3653.78 852.715 3652.05 852.224 3650.09 852.224C3648 852.224 3646.14 852.715 3644.52 853.696C3642.9 854.677 3641.64 856.064 3640.74 857.856C3639.85 859.605 3639.4 861.675 3639.4 864.064C3639.4 866.453 3639.89 868.565 3640.87 870.4C3641.9 872.192 3643.3 873.579 3645.1 874.56C3646.89 875.541 3648.94 876.032 3651.24 876.032C3655.46 876.032 3658.92 874.24 3661.61 870.656ZM3666.15 866.112H3637.67V861.696H3665.13L3666.15 863.936V866.112ZM3702.92 880H3696.97V861.696C3696.97 858.581 3696.26 856.256 3694.86 854.72C3693.45 853.141 3691.55 852.352 3689.16 852.352C3687.45 852.352 3685.83 852.8 3684.3 853.696C3682.76 854.592 3681.52 856 3680.58 857.92C3679.65 859.84 3679.18 862.315 3679.18 865.344V880H3673.22V848.256H3679.11V857.984H3678.22C3678.69 855.296 3679.54 853.184 3680.78 851.648C3682.01 850.069 3683.49 848.939 3685.19 848.256C3686.9 847.573 3688.67 847.232 3690.5 847.232C3694.34 847.232 3697.37 848.427 3699.59 850.816C3701.81 853.163 3702.92 856.576 3702.92 861.056V880ZM3729.86 880H3722.25C3719.77 880 3717.87 879.36 3716.55 878.08C3715.27 876.757 3714.63 874.88 3714.63 872.448V839.296H3720.58V871.68C3720.58 872.747 3720.86 873.579 3721.41 874.176C3721.97 874.731 3722.78 875.008 3723.85 875.008H3729.86V880ZM3729.41 853.248H3708.42V848.256H3729.41V853.248ZM3754.8 880H3748.85V848.256H3754.8V880ZM3751.86 840.768C3750.75 840.768 3749.79 840.405 3748.98 839.68C3748.21 838.912 3747.83 837.973 3747.83 836.864C3747.83 835.755 3748.21 834.816 3748.98 834.048C3749.79 833.28 3750.75 832.896 3751.86 832.896C3752.97 832.896 3753.91 833.28 3754.67 834.048C3755.44 834.816 3755.83 835.755 3755.83 836.864C3755.83 837.973 3755.44 838.912 3754.67 839.68C3753.91 840.405 3752.97 840.768 3751.86 840.768ZM3792.92 880H3786.97V861.696C3786.97 858.581 3786.26 856.256 3784.86 854.72C3783.45 853.141 3781.55 852.352 3779.16 852.352C3777.45 852.352 3775.83 852.8 3774.3 853.696C3772.76 854.592 3771.52 856 3770.58 857.92C3769.65 859.84 3769.18 862.315 3769.18 865.344V880H3763.22V848.256H3769.11V857.984H3768.22C3768.69 855.296 3769.54 853.184 3770.78 851.648C3772.01 850.069 3773.49 848.939 3775.19 848.256C3776.9 847.573 3778.67 847.232 3780.5 847.232C3784.34 847.232 3787.37 848.427 3789.59 850.816C3791.81 853.163 3792.92 856.576 3792.92 861.056V880ZM3369.26 961H3363.12V915.24H3369.26V961ZM3429.48 961H3423.53V942.632C3423.53 939.56 3422.89 937.256 3421.61 935.72C3420.33 934.141 3418.58 933.352 3416.36 933.352C3414.78 933.352 3413.26 933.8 3411.81 934.696C3410.41 935.592 3409.25 937 3408.36 938.92C3407.5 940.797 3407.08 943.251 3407.08 946.28V961H3401.13V942.632C3401.13 939.56 3400.46 937.256 3399.14 935.72C3397.86 934.141 3396.13 933.352 3393.96 933.352C3392.34 933.352 3390.8 933.8 3389.35 934.696C3387.94 935.592 3386.79 937 3385.89 938.92C3385.04 940.797 3384.61 943.251 3384.61 946.28V961H3378.66V929.256H3384.55V937L3384.04 936.936C3384.63 934.76 3385.51 933.053 3386.66 931.816C3387.86 930.579 3389.2 929.683 3390.69 929.128C3392.23 928.531 3393.79 928.232 3395.37 928.232C3398.22 928.232 3400.57 929.021 3402.41 930.6C3404.28 932.179 3405.5 934.504 3406.05 937.576H3405.29C3405.88 935.315 3406.8 933.501 3408.04 932.136C3409.32 930.771 3410.77 929.789 3412.39 929.192C3414.05 928.552 3415.74 928.232 3417.45 928.232C3421.24 928.232 3424.19 929.427 3426.28 931.816C3428.41 934.163 3429.48 937.576 3429.48 942.056V961ZM3443.49 973.416H3437.54V929.256H3443.42V938.984H3442.08C3442.42 936.893 3443.21 935.037 3444.45 933.416C3445.73 931.795 3447.31 930.536 3449.18 929.64C3451.1 928.701 3453.2 928.232 3455.46 928.232C3458.53 928.232 3461.26 928.979 3463.65 930.472C3466.04 931.923 3467.92 933.928 3469.28 936.488C3470.65 939.005 3471.33 941.885 3471.33 945.128C3471.33 948.413 3470.62 951.336 3469.22 953.896C3467.85 956.413 3465.93 958.397 3463.46 959.848C3461.02 961.299 3458.25 962.024 3455.14 962.024C3452.28 962.024 3449.8 961.448 3447.71 960.296C3445.62 959.101 3444.04 957.501 3442.98 955.496C3441.91 953.448 3441.48 951.165 3441.7 948.648L3442.91 947.432C3443.08 949.267 3443.68 950.909 3444.7 952.36C3445.77 953.811 3447.12 954.941 3448.74 955.752C3450.4 956.52 3452.19 956.904 3454.11 956.904C3456.33 956.904 3458.25 956.413 3459.87 955.432C3461.49 954.408 3462.77 953 3463.71 951.208C3464.65 949.416 3465.12 947.389 3465.12 945.128C3465.12 942.867 3464.67 940.861 3463.78 939.112C3462.88 937.32 3461.64 935.912 3460.06 934.888C3458.49 933.864 3456.63 933.352 3454.5 933.352C3452.36 933.352 3450.46 933.885 3448.8 934.952C3447.18 935.976 3445.88 937.427 3444.9 939.304C3443.96 941.181 3443.49 943.357 3443.49 945.832V973.416ZM3484.36 961H3478.41V914.92H3484.36V961ZM3519.79 951.656L3523.51 955.496C3521.84 957.544 3519.79 959.144 3517.36 960.296C3514.97 961.448 3512.26 962.024 3509.23 962.024C3505.78 962.024 3502.71 961.299 3500.02 959.848C3497.33 958.397 3495.22 956.413 3493.68 953.896C3492.19 951.336 3491.44 948.413 3491.44 945.128C3491.44 941.843 3492.17 938.941 3493.62 936.424C3495.07 933.864 3497.07 931.859 3499.63 930.408C3502.19 928.957 3505.07 928.232 3508.27 928.232C3511.39 928.232 3514.14 928.957 3516.53 930.408C3518.96 931.816 3520.86 933.779 3522.23 936.296C3523.63 938.771 3524.34 941.651 3524.34 944.936V945.32H3518.32V944.744C3518.32 942.44 3517.9 940.435 3517.04 938.728C3516.19 936.979 3514.99 935.635 3513.46 934.696C3511.97 933.715 3510.24 933.224 3508.27 933.224C3506.18 933.224 3504.33 933.715 3502.71 934.696C3501.09 935.677 3499.83 937.064 3498.93 938.856C3498.03 940.605 3497.59 942.675 3497.59 945.064C3497.59 947.453 3498.08 949.565 3499.06 951.4C3500.08 953.192 3501.49 954.579 3503.28 955.56C3505.07 956.541 3507.12 957.032 3509.43 957.032C3513.65 957.032 3517.11 955.24 3519.79 951.656ZM3524.34 947.112H3495.86V942.696H3523.31L3524.34 944.936V947.112ZM3582.23 961H3576.28V942.632C3576.28 939.56 3575.64 937.256 3574.36 935.72C3573.08 934.141 3571.33 933.352 3569.11 933.352C3567.53 933.352 3566.01 933.8 3564.56 934.696C3563.16 935.592 3562 937 3561.11 938.92C3560.25 940.797 3559.83 943.251 3559.83 946.28V961H3553.88V942.632C3553.88 939.56 3553.21 937.256 3551.89 935.72C3550.61 934.141 3548.88 933.352 3546.71 933.352C3545.09 933.352 3543.55 933.8 3542.1 934.696C3540.69 935.592 3539.54 937 3538.64 938.92C3537.79 940.797 3537.36 943.251 3537.36 946.28V961H3531.41V929.256H3537.3V937L3536.79 936.936C3537.38 934.76 3538.26 933.053 3539.41 931.816C3540.61 930.579 3541.95 929.683 3543.44 929.128C3544.98 928.531 3546.54 928.232 3548.12 928.232C3550.97 928.232 3553.32 929.021 3555.16 930.6C3557.03 932.179 3558.25 934.504 3558.8 937.576H3558.04C3558.63 935.315 3559.55 933.501 3560.79 932.136C3562.07 930.771 3563.52 929.789 3565.14 929.192C3566.8 928.552 3568.49 928.232 3570.2 928.232C3573.99 928.232 3576.94 929.427 3579.03 931.816C3581.16 934.163 3582.23 937.576 3582.23 942.056V961ZM3617.29 951.656L3621.01 955.496C3619.34 957.544 3617.29 959.144 3614.86 960.296C3612.47 961.448 3609.76 962.024 3606.73 962.024C3603.28 962.024 3600.21 961.299 3597.52 959.848C3594.83 958.397 3592.72 956.413 3591.18 953.896C3589.69 951.336 3588.94 948.413 3588.94 945.128C3588.94 941.843 3589.67 938.941 3591.12 936.424C3592.57 933.864 3594.57 931.859 3597.13 930.408C3599.69 928.957 3602.57 928.232 3605.77 928.232C3608.89 928.232 3611.64 928.957 3614.03 930.408C3616.46 931.816 3618.36 933.779 3619.73 936.296C3621.13 938.771 3621.84 941.651 3621.84 944.936V945.32H3615.82V944.744C3615.82 942.44 3615.4 940.435 3614.54 938.728C3613.69 936.979 3612.49 935.635 3610.96 934.696C3609.47 933.715 3607.74 933.224 3605.77 933.224C3603.68 933.224 3601.83 933.715 3600.21 934.696C3598.59 935.677 3597.33 937.064 3596.43 938.856C3595.53 940.605 3595.09 942.675 3595.09 945.064C3595.09 947.453 3595.58 949.565 3596.56 951.4C3597.58 953.192 3598.99 954.579 3600.78 955.56C3602.57 956.541 3604.62 957.032 3606.93 957.032C3611.15 957.032 3614.61 955.24 3617.29 951.656ZM3621.84 947.112H3593.36V942.696H3620.81L3621.84 944.936V947.112ZM3658.61 961H3652.66V942.696C3652.66 939.581 3651.95 937.256 3650.54 935.72C3649.14 934.141 3647.24 933.352 3644.85 933.352C3643.14 933.352 3641.52 933.8 3639.98 934.696C3638.45 935.592 3637.21 937 3636.27 938.92C3635.33 940.84 3634.86 943.315 3634.86 946.344V961H3628.91V929.256H3634.8V938.984H3633.9C3634.37 936.296 3635.23 934.184 3636.46 932.648C3637.7 931.069 3639.17 929.939 3640.88 929.256C3642.59 928.573 3644.36 928.232 3646.19 928.232C3650.03 928.232 3653.06 929.427 3655.28 931.816C3657.5 934.163 3658.61 937.576 3658.61 942.056V961ZM3685.55 961H3677.93C3675.46 961 3673.56 960.36 3672.24 959.08C3670.96 957.757 3670.32 955.88 3670.32 953.448V920.296H3676.27V952.68C3676.27 953.747 3676.55 954.579 3677.1 955.176C3677.66 955.731 3678.47 956.008 3679.53 956.008H3685.55V961ZM3685.1 934.248H3664.11V929.256H3685.1V934.248ZM3719.75 961H3714.18V954.728L3713.99 953.192V941.352C3713.99 938.835 3713.18 936.851 3711.56 935.4C3709.94 933.907 3707.74 933.16 3704.96 933.16C3702.96 933.16 3701.12 933.587 3699.46 934.44C3697.8 935.251 3696.35 936.381 3695.11 937.832L3691.4 933.992C3693.15 932.157 3695.15 930.749 3697.41 929.768C3699.72 928.744 3702.28 928.232 3705.09 928.232C3707.99 928.232 3710.53 928.765 3712.71 929.832C3714.93 930.899 3716.66 932.392 3717.89 934.312C3719.13 936.189 3719.75 938.472 3719.75 941.16V961ZM3702.47 962.024C3700.08 962.024 3697.97 961.597 3696.13 960.744C3694.3 959.848 3692.87 958.632 3691.84 957.096C3690.82 955.56 3690.31 953.811 3690.31 951.848C3690.31 949.629 3690.93 947.752 3692.16 946.216C3693.44 944.637 3695.19 943.443 3697.41 942.632C3699.63 941.779 3702.17 941.352 3705.03 941.352H3714.69V945.768H3705.67C3702.98 945.768 3700.76 946.259 3699.01 947.24C3697.31 948.179 3696.45 949.651 3696.45 951.656C3696.45 953.363 3697.09 954.728 3698.37 955.752C3699.7 956.776 3701.4 957.288 3703.49 957.288C3705.54 957.288 3707.4 956.883 3709.06 956.072C3710.72 955.261 3712.05 954.131 3713.03 952.68C3714.05 951.187 3714.63 949.48 3714.76 947.56L3716.87 948.712C3716.87 951.272 3716.25 953.555 3715.01 955.56C3713.78 957.565 3712.07 959.144 3709.89 960.296C3707.76 961.448 3705.28 962.024 3702.47 962.024ZM3746.67 961H3739.06C3736.58 961 3734.68 960.36 3733.36 959.08C3732.08 957.757 3731.44 955.88 3731.44 953.448V920.296H3737.39V952.68C3737.39 953.747 3737.67 954.579 3738.23 955.176C3738.78 955.731 3739.59 956.008 3740.66 956.008H3746.67V961ZM3746.23 934.248H3725.23V929.256H3746.23V934.248ZM3759.11 961H3753.16V929.256H3759.11V961ZM3756.17 921.768C3755.06 921.768 3754.1 921.405 3753.29 920.68C3752.52 919.912 3752.14 918.973 3752.14 917.864C3752.14 916.755 3752.52 915.816 3753.29 915.048C3754.1 914.28 3755.06 913.896 3756.17 913.896C3757.28 913.896 3758.22 914.28 3758.99 915.048C3759.75 915.816 3760.14 916.755 3760.14 917.864C3760.14 918.973 3759.75 919.912 3758.99 920.68C3758.22 921.405 3757.28 921.768 3756.17 921.768ZM3783.22 962.024C3779.89 962.024 3776.94 961.299 3774.38 959.848C3771.82 958.397 3769.82 956.413 3768.37 953.896C3766.92 951.336 3766.19 948.413 3766.19 945.128C3766.19 941.843 3766.92 938.941 3768.37 936.424C3769.82 933.907 3771.82 931.923 3774.38 930.472C3776.94 928.979 3779.89 928.232 3783.22 928.232C3786.54 928.232 3789.47 928.979 3791.98 930.472C3794.54 931.923 3796.55 933.907 3798 936.424C3799.49 938.941 3800.24 941.843 3800.24 945.128C3800.24 948.413 3799.49 951.336 3798 953.896C3796.55 956.413 3794.54 958.397 3791.98 959.848C3789.47 961.299 3786.54 962.024 3783.22 962.024ZM3783.22 956.904C3785.35 956.904 3787.23 956.413 3788.85 955.432C3790.47 954.451 3791.73 953.064 3792.62 951.272C3793.52 949.48 3793.97 947.432 3793.97 945.128C3793.97 942.824 3793.52 940.797 3792.62 939.048C3791.73 937.256 3790.47 935.869 3788.85 934.888C3787.23 933.864 3785.35 933.352 3783.22 933.352C3781.08 933.352 3779.18 933.864 3777.52 934.888C3775.9 935.869 3774.64 937.256 3773.74 939.048C3772.85 940.797 3772.4 942.824 3772.4 945.128C3772.4 947.432 3772.85 949.48 3773.74 951.272C3774.64 953.064 3775.9 954.451 3777.52 955.432C3779.18 956.413 3781.08 956.904 3783.22 956.904ZM3836.98 961H3831.03V942.696C3831.03 939.581 3830.33 937.256 3828.92 935.72C3827.51 934.141 3825.61 933.352 3823.22 933.352C3821.52 933.352 3819.89 933.8 3818.36 934.696C3816.82 935.592 3815.59 937 3814.65 938.92C3813.71 940.84 3813.24 943.315 3813.24 946.344V961H3807.29V929.256H3813.17V938.984H3812.28C3812.75 936.296 3813.6 934.184 3814.84 932.648C3816.08 931.069 3817.55 929.939 3819.25 929.256C3820.96 928.573 3822.73 928.232 3824.57 928.232C3828.41 928.232 3831.44 929.427 3833.65 931.816C3835.87 934.163 3836.98 937.576 3836.98 942.056V961Z" fill="#F5F5F5"/>
<defs>
<linearGradient id="paint0_linear_283_124" x1="4.29811e-08" y1="45.5" x2="3841" y2="45.4997" gradientUnits="userSpaceOnUse">
<stop stop-color="#7C9885"/>
<stop offset="1" stop-color="#E31937"/>
</linearGradient>
</defs>
</svg>
